<?xml version="1.0" encoding="UTF-8" standalone="no"?>
<!DOCTYPE svg PUBLIC "-//W3C//DTD SVG 1.1//EN"
 "http://www.w3.org/Graphics/SVG/1.1/DTD/svg11.dtd">
<!-- Generated by graphviz version 2.36.0 (20140111.2315)
 -->
<!-- Title: ProtobufImageWrapper::ParseFromArray Pages: 1 -->
<svg width="276pt" height="87pt"
 viewBox="0.00 0.00 276.00 87.00" xmlns="http://www.w3.org/2000/svg" xmlns:xlink="http://www.w3.org/1999/xlink">
<g id="graph0" class="graph" transform="scale(1 1) rotate(0) translate(4 83)">
<title>ProtobufImageWrapper::ParseFromArray</title>
<!-- Node1 -->
<g id="node1" class="node"><title>Node1</title>
<polygon fill="#bfbfbf" stroke="black" points="0.5,-24 0.5,-54 117.5,-54 117.5,-24 0.5,-24"/>
<text text-anchor="start" x="8.5" y="-42" font-family="Helvetica,sans-Serif" font-size="10.00">ProtobufImageWrapper</text>
<text text-anchor="middle" x="59" y="-31" font-family="Helvetica,sans-Serif" font-size="10.00">::ParseFromArray</text>
</g>
<!-- Node2 -->
<g id="node2" class="node"><title>Node2</title>
<g id="a_node2"><a xlink:href="classHDF5FrameSelector.html#abd65b3f0cc71cb23a1bff91cc647d770" target="_top" xlink:title="HDF5FrameSelector::\lReadImage">
<polygon fill="none" stroke="black" points="154.5,-49 154.5,-79 267.5,-79 267.5,-49 154.5,-49"/>
<text text-anchor="start" x="162.5" y="-67" font-family="Helvetica,sans-Serif" font-size="10.00">HDF5FrameSelector::</text>
<text text-anchor="middle" x="211" y="-56" font-family="Helvetica,sans-Serif" font-size="10.00">ReadImage</text>
</a>
</g>
</g>
<!-- Node1&#45;&gt;Node2 -->
<g id="edge1" class="edge"><title>Node1&#45;&gt;Node2</title>
<path fill="none" stroke="midnightblue" d="M127.575,-50.2625C136.519,-51.7532 145.606,-53.2676 154.319,-54.7198"/>
<polygon fill="midnightblue" stroke="midnightblue" points="128.004,-46.7858 117.565,-48.5942 126.853,-53.6906 128.004,-46.7858"/>
</g>
<!-- Node3 -->
<g id="node3" class="node"><title>Node3</title>
<g id="a_node3"><a xlink:href="classHDF5FrameSelector.html#ab96c4aad85f9d271b66b7fbd8cdd1cdb" target="_top" xlink:title="HDF5FrameSelector::\lReadAllImages">
<polygon fill="none" stroke="black" points="154.5,-0 154.5,-30 267.5,-30 267.5,-0 154.5,-0"/>
<text text-anchor="start" x="162.5" y="-18" font-family="Helvetica,sans-Serif" font-size="10.00">HDF5FrameSelector::</text>
<text text-anchor="middle" x="211" y="-7" font-family="Helvetica,sans-Serif" font-size="10.00">ReadAllImages</text>
</a>
</g>
</g>
<!-- Node1&#45;&gt;Node3 -->
<g id="edge2" class="edge"><title>Node1&#45;&gt;Node3</title>
<path fill="none" stroke="midnightblue" d="M127.575,-28.188C136.519,-26.7569 145.606,-25.3031 154.319,-23.909"/>
<polygon fill="midnightblue" stroke="midnightblue" points="126.886,-24.7536 117.565,-29.7896 127.992,-31.6657 126.886,-24.7536"/>
</g>
</g>
</svg>
