<?xml version="1.0" encoding="UTF-8" standalone="no"?>
<!DOCTYPE svg PUBLIC "-//W3C//DTD SVG 1.1//EN"
 "http://www.w3.org/Graphics/SVG/1.1/DTD/svg11.dtd">
<!-- Generated by graphviz version 2.36.0 (20140111.2315)
 -->
<!-- Title: Image::GetImageHeight Pages: 1 -->
<svg width="456pt" height="28pt"
 viewBox="0.00 0.00 456.00 28.00" xmlns="http://www.w3.org/2000/svg" xmlns:xlink="http://www.w3.org/1999/xlink">
<g id="graph0" class="graph" transform="scale(1 1) rotate(0) translate(4 24)">
<title>Image::GetImageHeight</title>
<!-- Node1 -->
<g id="node1" class="node"><title>Node1</title>
<polygon fill="#bfbfbf" stroke="black" points="0.5,-0.5 0.5,-19.5 121.5,-19.5 121.5,-0.5 0.5,-0.5"/>
<text text-anchor="middle" x="61" y="-7.5" font-family="Helvetica,sans-Serif" font-size="10.00">Image::GetImageHeight</text>
</g>
<!-- Node2 -->
<g id="node2" class="node"><title>Node2</title>
<g id="a_node2"><a xlink:href="classDetection.html#a941a728fc31bb699c0ffdfb37363c786" target="_top" xlink:title="Detection::ProcessFrame">
<polygon fill="none" stroke="black" points="158,-0.5 158,-19.5 286,-19.5 286,-0.5 158,-0.5"/>
<text text-anchor="middle" x="222" y="-7.5" font-family="Helvetica,sans-Serif" font-size="10.00">Detection::ProcessFrame</text>
</a>
</g>
</g>
<!-- Node1&#45;&gt;Node2 -->
<g id="edge1" class="edge"><title>Node1&#45;&gt;Node2</title>
<path fill="none" stroke="midnightblue" d="M131.744,-10C140.418,-10 149.25,-10 157.818,-10"/>
<polygon fill="midnightblue" stroke="midnightblue" points="131.658,-6.5001 121.658,-10 131.658,-13.5001 131.658,-6.5001"/>
</g>
<!-- Node3 -->
<g id="node3" class="node"><title>Node3</title>
<g id="a_node3"><a xlink:href="classController.html#ae6a344da6f15085a06114ee0514a8a24" target="_top" xlink:title="Controller::AnalyseVideo">
<polygon fill="none" stroke="black" points="322.5,-0.5 322.5,-19.5 447.5,-19.5 447.5,-0.5 322.5,-0.5"/>
<text text-anchor="middle" x="385" y="-7.5" font-family="Helvetica,sans-Serif" font-size="10.00">Controller::AnalyseVideo</text>
</a>
</g>
</g>
<!-- Node2&#45;&gt;Node3 -->
<g id="edge2" class="edge"><title>Node2&#45;&gt;Node3</title>
<path fill="none" stroke="midnightblue" d="M296.305,-10C305.005,-10 313.817,-10 322.331,-10"/>
<polygon fill="midnightblue" stroke="midnightblue" points="296.169,-6.5001 286.169,-10 296.169,-13.5001 296.169,-6.5001"/>
</g>
</g>
</svg>
