<?xml version="1.0" encoding="UTF-8" standalone="no"?>
<!DOCTYPE svg PUBLIC "-//W3C//DTD SVG 1.1//EN"
 "http://www.w3.org/Graphics/SVG/1.1/DTD/svg11.dtd">
<!-- Generated by graphviz version 2.36.0 (20140111.2315)
 -->
<!-- Title: BayerImage::GetImageHeight Pages: 1 -->
<svg width="330pt" height="77pt"
 viewBox="0.00 0.00 330.00 77.00" xmlns="http://www.w3.org/2000/svg" xmlns:xlink="http://www.w3.org/1999/xlink">
<g id="graph0" class="graph" transform="scale(1 1) rotate(0) translate(4 73)">
<title>BayerImage::GetImageHeight</title>
<!-- Node1 -->
<g id="node1" class="node"><title>Node1</title>
<polygon fill="#bfbfbf" stroke="black" points="0,-27.5 0,-46.5 146,-46.5 146,-27.5 0,-27.5"/>
<text text-anchor="middle" x="73" y="-34.5" font-family="Helvetica,sans-Serif" font-size="10.00">BayerImage::GetImageHeight</text>
</g>
<!-- Node2 -->
<g id="node2" class="node"><title>Node2</title>
<g id="a_node2"><a xlink:href="classBayerImage.html#a228035e294dd92d6284bfa3ca3e30ff4" target="_top" xlink:title="BayerImage::GetRGBImage">
<polygon fill="none" stroke="black" points="182,-49.5 182,-68.5 322,-68.5 322,-49.5 182,-49.5"/>
<text text-anchor="middle" x="252" y="-56.5" font-family="Helvetica,sans-Serif" font-size="10.00">BayerImage::GetRGBImage</text>
</a>
</g>
</g>
<!-- Node1&#45;&gt;Node2 -->
<g id="edge1" class="edge"><title>Node1&#45;&gt;Node2</title>
<path fill="none" stroke="midnightblue" d="M156.243,-47.2223C164.805,-48.2865 173.445,-49.3604 181.841,-50.404"/>
<polygon fill="midnightblue" stroke="midnightblue" points="156.603,-43.7402 146.248,-45.98 155.74,-50.6868 156.603,-43.7402"/>
</g>
<!-- Node3 -->
<g id="node3" class="node"><title>Node3</title>
<g id="a_node3"><a xlink:href="classHDF5FrameSelector.html#abd65b3f0cc71cb23a1bff91cc647d770" target="_top" xlink:title="HDF5FrameSelector::\lReadImage">
<polygon fill="none" stroke="black" points="195.5,-0 195.5,-30 308.5,-30 308.5,-0 195.5,-0"/>
<text text-anchor="start" x="203.5" y="-18" font-family="Helvetica,sans-Serif" font-size="10.00">HDF5FrameSelector::</text>
<text text-anchor="middle" x="252" y="-7" font-family="Helvetica,sans-Serif" font-size="10.00">ReadImage</text>
</a>
</g>
</g>
<!-- Node1&#45;&gt;Node3 -->
<g id="edge2" class="edge"><title>Node1&#45;&gt;Node3</title>
<path fill="none" stroke="midnightblue" d="M156.284,-26.7726C169.481,-25.1323 182.863,-23.469 195.249,-21.9295"/>
<polygon fill="midnightblue" stroke="midnightblue" points="155.74,-23.3132 146.248,-28.02 156.603,-30.2598 155.74,-23.3132"/>
</g>
</g>
</svg>
