<?xml version="1.0" encoding="UTF-8" standalone="no"?>
<!DOCTYPE svg PUBLIC "-//W3C//DTD SVG 1.1//EN"
 "http://www.w3.org/Graphics/SVG/1.1/DTD/svg11.dtd">
<!-- Generated by graphviz version 2.36.0 (20140111.2315)
 -->
<!-- Title: HDFReader::ReadOneProtobufFile Pages: 1 -->
<svg width="510pt" height="87pt"
 viewBox="0.00 0.00 510.00 87.00" xmlns="http://www.w3.org/2000/svg" xmlns:xlink="http://www.w3.org/1999/xlink">
<g id="graph0" class="graph" transform="scale(1 1) rotate(0) translate(4 83)">
<title>HDFReader::ReadOneProtobufFile</title>
<!-- Node1 -->
<g id="node1" class="node"><title>Node1</title>
<polygon fill="#bfbfbf" stroke="black" points="0.5,-29.5 0.5,-48.5 169.5,-48.5 169.5,-29.5 0.5,-29.5"/>
<text text-anchor="middle" x="85" y="-36.5" font-family="Helvetica,sans-Serif" font-size="10.00">HDFReader::ReadOneProtobufFile</text>
</g>
<!-- Node2 -->
<g id="node2" class="node"><title>Node2</title>
<g id="a_node2"><a xlink:href="classHDF5FrameSelector.html#abd65b3f0cc71cb23a1bff91cc647d770" target="_top" xlink:title="HDF5FrameSelector::\lReadImage">
<polygon fill="none" stroke="black" points="222.5,-49 222.5,-79 335.5,-79 335.5,-49 222.5,-49"/>
<text text-anchor="start" x="230.5" y="-67" font-family="Helvetica,sans-Serif" font-size="10.00">HDF5FrameSelector::</text>
<text text-anchor="middle" x="279" y="-56" font-family="Helvetica,sans-Serif" font-size="10.00">ReadImage</text>
</a>
</g>
</g>
<!-- Node1&#45;&gt;Node2 -->
<g id="edge1" class="edge"><title>Node1&#45;&gt;Node2</title>
<path fill="none" stroke="midnightblue" d="M169.067,-49.8161C187.09,-52.1628 205.733,-54.5902 222.391,-56.7593"/>
<polygon fill="midnightblue" stroke="midnightblue" points="169.503,-46.3433 159.135,-48.5227 168.599,-53.2847 169.503,-46.3433"/>
</g>
<!-- Node3 -->
<g id="node3" class="node"><title>Node3</title>
<g id="a_node3"><a xlink:href="classHDFReader.html#a5b9e493c8ec8cf001105dd262336e10b" target="_top" xlink:title="HDFReader::ReadAllProtobuf\lFiles">
<polygon fill="none" stroke="black" points="206,-0 206,-30 352,-30 352,-0 206,-0"/>
<text text-anchor="start" x="214" y="-18" font-family="Helvetica,sans-Serif" font-size="10.00">HDFReader::ReadAllProtobuf</text>
<text text-anchor="middle" x="279" y="-7" font-family="Helvetica,sans-Serif" font-size="10.00">Files</text>
</a>
</g>
</g>
<!-- Node1&#45;&gt;Node3 -->
<g id="edge2" class="edge"><title>Node1&#45;&gt;Node3</title>
<path fill="none" stroke="midnightblue" d="M172.404,-28.1995C183.632,-26.796 195.038,-25.3703 205.997,-24.0003"/>
<polygon fill="midnightblue" stroke="midnightblue" points="171.648,-24.7667 162.159,-29.4801 172.516,-31.7126 171.648,-24.7667"/>
</g>
<!-- Node4 -->
<g id="node4" class="node"><title>Node4</title>
<g id="a_node4"><a xlink:href="classHDF5FrameSelector.html#ab96c4aad85f9d271b66b7fbd8cdd1cdb" target="_top" xlink:title="HDF5FrameSelector::\lReadAllImages">
<polygon fill="none" stroke="black" points="388.5,-0 388.5,-30 501.5,-30 501.5,-0 388.5,-0"/>
<text text-anchor="start" x="396.5" y="-18" font-family="Helvetica,sans-Serif" font-size="10.00">HDF5FrameSelector::</text>
<text text-anchor="middle" x="445" y="-7" font-family="Helvetica,sans-Serif" font-size="10.00">ReadAllImages</text>
</a>
</g>
</g>
<!-- Node3&#45;&gt;Node4 -->
<g id="edge3" class="edge"><title>Node3&#45;&gt;Node4</title>
<path fill="none" stroke="midnightblue" d="M362.589,-15C371.276,-15 379.954,-15 388.234,-15"/>
<polygon fill="midnightblue" stroke="midnightblue" points="362.41,-11.5001 352.41,-15 362.41,-18.5001 362.41,-11.5001"/>
</g>
</g>
</svg>
