<?xml version="1.0" encoding="UTF-8" standalone="no"?>
<!DOCTYPE svg PUBLIC "-//W3C//DTD SVG 1.1//EN"
 "http://www.w3.org/Graphics/SVG/1.1/DTD/svg11.dtd">
<!-- Generated by graphviz version 2.36.0 (20140111.2315)
 -->
<!-- Title: Detection::ProcessFrame Pages: 1 -->
<svg width="294pt" height="153pt"
 viewBox="0.00 0.00 294.00 153.00" xmlns="http://www.w3.org/2000/svg" xmlns:xlink="http://www.w3.org/1999/xlink">
<g id="graph0" class="graph" transform="scale(1 1) rotate(0) translate(4 149)">
<title>Detection::ProcessFrame</title>
<!-- Node1 -->
<g id="node1" class="node"><title>Node1</title>
<polygon fill="#bfbfbf" stroke="black" points="0,-68.5 0,-87.5 128,-87.5 128,-68.5 0,-68.5"/>
<text text-anchor="middle" x="64" y="-75.5" font-family="Helvetica,sans-Serif" font-size="10.00">Detection::ProcessFrame</text>
</g>
<!-- Node2 -->
<g id="node2" class="node"><title>Node2</title>
<g id="a_node2"><a xlink:href="classImage.html#aeb608aeba65746cadab9233a5f555a1d" target="_top" xlink:title="Image::GetRGBImage">
<polygon fill="none" stroke="black" points="168,-125.5 168,-144.5 282,-144.5 282,-125.5 168,-125.5"/>
<text text-anchor="middle" x="225" y="-132.5" font-family="Helvetica,sans-Serif" font-size="10.00">Image::GetRGBImage</text>
</a>
</g>
</g>
<!-- Node1&#45;&gt;Node2 -->
<g id="edge1" class="edge"><title>Node1&#45;&gt;Node2</title>
<path fill="none" stroke="midnightblue" d="M88.8579,-87.6181C108.819,-95.5538 138.108,-106.94 164,-116 170.091,-118.131 176.566,-120.291 182.922,-122.351"/>
<polygon fill="midnightblue" stroke="midnightblue" points="182.151,-125.779 192.742,-125.491 184.282,-119.112 182.151,-125.779"/>
</g>
<!-- Node3 -->
<g id="node3" class="node"><title>Node3</title>
<g id="a_node3"><a xlink:href="classImage.html#a7ea6fcf26832356767d7d9766f11075a" target="_top" xlink:title="Image::GetImageWidth">
<polygon fill="none" stroke="black" points="166,-87.5 166,-106.5 284,-106.5 284,-87.5 166,-87.5"/>
<text text-anchor="middle" x="225" y="-94.5" font-family="Helvetica,sans-Serif" font-size="10.00">Image::GetImageWidth</text>
</a>
</g>
</g>
<!-- Node1&#45;&gt;Node3 -->
<g id="edge2" class="edge"><title>Node1&#45;&gt;Node3</title>
<path fill="none" stroke="midnightblue" d="M128.298,-85.5639C137.296,-86.6391 146.583,-87.7489 155.671,-88.8349"/>
<polygon fill="midnightblue" stroke="midnightblue" points="155.477,-92.3365 165.821,-90.0478 156.307,-85.3859 155.477,-92.3365"/>
</g>
<!-- Node4 -->
<g id="node4" class="node"><title>Node4</title>
<g id="a_node4"><a xlink:href="classImage.html#ab5e37380d072a8068b9c199d5c23e58f" target="_top" xlink:title="Image::GetImageHeight">
<polygon fill="none" stroke="black" points="164.5,-49.5 164.5,-68.5 285.5,-68.5 285.5,-49.5 164.5,-49.5"/>
<text text-anchor="middle" x="225" y="-56.5" font-family="Helvetica,sans-Serif" font-size="10.00">Image::GetImageHeight</text>
</a>
</g>
</g>
<!-- Node1&#45;&gt;Node4 -->
<g id="edge3" class="edge"><title>Node1&#45;&gt;Node4</title>
<path fill="none" stroke="midnightblue" d="M128.298,-70.4361C136.825,-69.4171 145.613,-68.367 154.244,-67.3356"/>
<polygon fill="midnightblue" stroke="midnightblue" points="154.767,-70.7981 164.281,-66.1362 153.936,-63.8476 154.767,-70.7981"/>
</g>
<!-- Node5 -->
<g id="node5" class="node"><title>Node5</title>
<g id="a_node5"><a xlink:href="classFrameDetectionData.html#af25990eaa77d370ce5055cce0fe04418" target="_top" xlink:title="FrameDetectionData\l::AddElementsOfType">
<polygon fill="none" stroke="black" points="168.5,-0 168.5,-30 281.5,-30 281.5,-0 168.5,-0"/>
<text text-anchor="start" x="176.5" y="-18" font-family="Helvetica,sans-Serif" font-size="10.00">FrameDetectionData</text>
<text text-anchor="middle" x="225" y="-7" font-family="Helvetica,sans-Serif" font-size="10.00">::AddElementsOfType</text>
</a>
</g>
</g>
<!-- Node1&#45;&gt;Node5 -->
<g id="edge4" class="edge"><title>Node1&#45;&gt;Node5</title>
<path fill="none" stroke="midnightblue" d="M89.1487,-68.4317C112.252,-59.2776 147.736,-45.2178 176.507,-33.8181"/>
<polygon fill="midnightblue" stroke="midnightblue" points="177.971,-37.0026 185.979,-30.065 175.393,-30.4949 177.971,-37.0026"/>
</g>
</g>
</svg>
