<?xml version="1.0" encoding="UTF-8" standalone="no"?>
<!DOCTYPE svg PUBLIC "-//W3C//DTD SVG 1.1//EN"
 "http://www.w3.org/Graphics/SVG/1.1/DTD/svg11.dtd">
<!-- Generated by graphviz version 2.36.0 (20140111.2315)
 -->
<!-- Title: FrameSelector::ReadImage Pages: 1 -->
<svg width="314pt" height="115pt"
 viewBox="0.00 0.00 314.00 115.00" xmlns="http://www.w3.org/2000/svg" xmlns:xlink="http://www.w3.org/1999/xlink">
<g id="graph0" class="graph" transform="scale(1 1) rotate(0) translate(4 111)">
<title>FrameSelector::ReadImage</title>
<!-- Node1 -->
<g id="node1" class="node"><title>Node1</title>
<polygon fill="#bfbfbf" stroke="black" points="0.5,-49.5 0.5,-68.5 137.5,-68.5 137.5,-49.5 0.5,-49.5"/>
<text text-anchor="middle" x="69" y="-56.5" font-family="Helvetica,sans-Serif" font-size="10.00">FrameSelector::ReadImage</text>
</g>
<!-- Node2 -->
<g id="node2" class="node"><title>Node2</title>
<g id="a_node2"><a xlink:href="classController.html#a19cb830e2532b42b588b3dcc26ced8fa" target="_top" xlink:title="Controller::PlayAsVideo">
<polygon fill="none" stroke="black" points="179.5,-87.5 179.5,-106.5 300.5,-106.5 300.5,-87.5 179.5,-87.5"/>
<text text-anchor="middle" x="240" y="-94.5" font-family="Helvetica,sans-Serif" font-size="10.00">Controller::PlayAsVideo</text>
</a>
</g>
</g>
<!-- Node1&#45;&gt;Node2 -->
<g id="edge1" class="edge"><title>Node1&#45;&gt;Node2</title>
<path fill="none" stroke="midnightblue" d="M122.587,-70.8243C146.413,-76.1816 174.207,-82.4311 196.661,-87.4799"/>
<polygon fill="midnightblue" stroke="midnightblue" points="123.17,-67.3681 112.646,-68.589 121.634,-74.1976 123.17,-67.3681"/>
</g>
<!-- Node3 -->
<g id="node3" class="node"><title>Node3</title>
<g id="a_node3"><a xlink:href="classController.html#ae6a344da6f15085a06114ee0514a8a24" target="_top" xlink:title="Controller::AnalyseVideo">
<polygon fill="none" stroke="black" points="177.5,-49.5 177.5,-68.5 302.5,-68.5 302.5,-49.5 177.5,-49.5"/>
<text text-anchor="middle" x="240" y="-56.5" font-family="Helvetica,sans-Serif" font-size="10.00">Controller::AnalyseVideo</text>
</a>
</g>
</g>
<!-- Node1&#45;&gt;Node3 -->
<g id="edge2" class="edge"><title>Node1&#45;&gt;Node3</title>
<path fill="none" stroke="midnightblue" d="M147.939,-59C157.764,-59 167.708,-59 177.236,-59"/>
<polygon fill="midnightblue" stroke="midnightblue" points="147.765,-55.5001 137.765,-59 147.765,-62.5001 147.765,-55.5001"/>
</g>
<!-- Node4 -->
<g id="node4" class="node"><title>Node4</title>
<g id="a_node4"><a xlink:href="classController.html#afd6375744f4f31dd254d1e5f1316ff4b" target="_top" xlink:title="Controller::SaveAllImages\lAsJPEG">
<polygon fill="none" stroke="black" points="174.5,-0 174.5,-30 305.5,-30 305.5,-0 174.5,-0"/>
<text text-anchor="start" x="182.5" y="-18" font-family="Helvetica,sans-Serif" font-size="10.00">Controller::SaveAllImages</text>
<text text-anchor="middle" x="240" y="-7" font-family="Helvetica,sans-Serif" font-size="10.00">AsJPEG</text>
</a>
</g>
</g>
<!-- Node1&#45;&gt;Node4 -->
<g id="edge3" class="edge"><title>Node1&#45;&gt;Node4</title>
<path fill="none" stroke="midnightblue" d="M116.465,-46.9026C136.453,-41.6987 160.029,-35.5605 181.135,-30.0654"/>
<polygon fill="midnightblue" stroke="midnightblue" points="115.466,-43.5459 106.67,-49.4527 117.23,-50.3201 115.466,-43.5459"/>
</g>
</g>
</svg>
