<?xml version="1.0" encoding="UTF-8" standalone="no"?>
<!DOCTYPE svg PUBLIC "-//W3C//DTD SVG 1.1//EN"
 "http://www.w3.org/Graphics/SVG/1.1/DTD/svg11.dtd">
<!-- Generated by graphviz version 2.36.0 (20140111.2315)
 -->
<!-- Title: BayerImage::GetRGBImage Pages: 1 -->
<svg width="338pt" height="104pt"
 viewBox="0.00 0.00 338.00 104.00" xmlns="http://www.w3.org/2000/svg" xmlns:xlink="http://www.w3.org/1999/xlink">
<g id="graph0" class="graph" transform="scale(1 1) rotate(0) translate(4 100)">
<title>BayerImage::GetRGBImage</title>
<!-- Node1 -->
<g id="node1" class="node"><title>Node1</title>
<polygon fill="#bfbfbf" stroke="black" points="0,-38.5 0,-57.5 140,-57.5 140,-38.5 0,-38.5"/>
<text text-anchor="middle" x="70" y="-45.5" font-family="Helvetica,sans-Serif" font-size="10.00">BayerImage::GetRGBImage</text>
</g>
<!-- Node2 -->
<g id="node2" class="node"><title>Node2</title>
<g id="a_node2"><a xlink:href="classBayerImage.html#af917fa2041f656b0a85140ca8c8fd846" target="_top" xlink:title="BayerImage::GetImageWidth">
<polygon fill="none" stroke="black" points="181.5,-76.5 181.5,-95.5 324.5,-95.5 324.5,-76.5 181.5,-76.5"/>
<text text-anchor="middle" x="253" y="-83.5" font-family="Helvetica,sans-Serif" font-size="10.00">BayerImage::GetImageWidth</text>
</a>
</g>
</g>
<!-- Node1&#45;&gt;Node2 -->
<g id="edge1" class="edge"><title>Node1&#45;&gt;Node2</title>
<path fill="none" stroke="midnightblue" d="M116.674,-57.589C140.989,-62.6939 171.08,-69.0113 196.708,-74.3918"/>
<polygon fill="midnightblue" stroke="midnightblue" points="196.149,-77.8505 206.654,-76.4799 197.587,-70.9999 196.149,-77.8505"/>
</g>
<!-- Node3 -->
<g id="node3" class="node"><title>Node3</title>
<g id="a_node3"><a xlink:href="classBayerImage.html#a494f5e4be09a2d2f8e4c78a536d3ce85" target="_top" xlink:title="BayerImage::GetImageHeight">
<polygon fill="none" stroke="black" points="180,-38.5 180,-57.5 326,-57.5 326,-38.5 180,-38.5"/>
<text text-anchor="middle" x="253" y="-45.5" font-family="Helvetica,sans-Serif" font-size="10.00">BayerImage::GetImageHeight</text>
</a>
</g>
</g>
<!-- Node1&#45;&gt;Node3 -->
<g id="edge2" class="edge"><title>Node1&#45;&gt;Node3</title>
<path fill="none" stroke="midnightblue" d="M140.203,-48C149.832,-48 159.802,-48 169.643,-48"/>
<polygon fill="midnightblue" stroke="midnightblue" points="169.831,-51.5001 179.831,-48 169.831,-44.5001 169.831,-51.5001"/>
</g>
<!-- Node4 -->
<g id="node4" class="node"><title>Node4</title>
<g id="a_node4"><a xlink:href="classBayerImage.html#a77bccbc5c1e04e2d9618d7a3bd5ab42d" target="_top" xlink:title="BayerImage::GetImagePayload">
<polygon fill="none" stroke="black" points="176.5,-0.5 176.5,-19.5 329.5,-19.5 329.5,-0.5 176.5,-0.5"/>
<text text-anchor="middle" x="253" y="-7.5" font-family="Helvetica,sans-Serif" font-size="10.00">BayerImage::GetImagePayload</text>
</a>
</g>
</g>
<!-- Node1&#45;&gt;Node4 -->
<g id="edge3" class="edge"><title>Node1&#45;&gt;Node4</title>
<path fill="none" stroke="midnightblue" d="M116.674,-38.411C140.989,-33.3061 171.08,-26.9887 196.708,-21.6082"/>
<polygon fill="midnightblue" stroke="midnightblue" points="197.587,-25.0001 206.654,-19.5201 196.149,-18.1495 197.587,-25.0001"/>
</g>
</g>
</svg>
