<?xml version="1.0" encoding="UTF-8" standalone="no"?>
<!DOCTYPE svg PUBLIC "-//W3C//DTD SVG 1.1//EN"
 "http://www.w3.org/Graphics/SVG/1.1/DTD/svg11.dtd">
<!-- Generated by graphviz version 2.36.0 (20140111.2315)
 -->
<!-- Title: HumansInFrontOfBusScenario::Detect Pages: 1 -->
<svg width="442pt" height="142pt"
 viewBox="0.00 0.00 442.00 142.00" xmlns="http://www.w3.org/2000/svg" xmlns:xlink="http://www.w3.org/1999/xlink">
<g id="graph0" class="graph" transform="scale(1 1) rotate(0) translate(4 138)">
<title>HumansInFrontOfBusScenario::Detect</title>
<!-- Node1 -->
<g id="node1" class="node"><title>Node1</title>
<polygon fill="#bfbfbf" stroke="black" points="0,-74 0,-104 150,-104 150,-74 0,-74"/>
<text text-anchor="start" x="8" y="-92" font-family="Helvetica,sans-Serif" font-size="10.00">HumansInFrontOfBusScenario</text>
<text text-anchor="middle" x="75" y="-81" font-family="Helvetica,sans-Serif" font-size="10.00">::Detect</text>
</g>
<!-- Node2 -->
<g id="node2" class="node"><title>Node2</title>
<g id="a_node2"><a xlink:href="classFrameDetectionData.html#a8734e8f4de684515d68a3dfa7c703b81" target="_top" xlink:title="FrameDetectionData\l::GetElementsOfType">
<polygon fill="none" stroke="black" points="186,-96 186,-126 298,-126 298,-96 186,-96"/>
<text text-anchor="start" x="194" y="-114" font-family="Helvetica,sans-Serif" font-size="10.00">FrameDetectionData</text>
<text text-anchor="middle" x="242" y="-103" font-family="Helvetica,sans-Serif" font-size="10.00">::GetElementsOfType</text>
</a>
</g>
</g>
<!-- Node1&#45;&gt;Node2 -->
<g id="edge1" class="edge"><title>Node1&#45;&gt;Node2</title>
<path fill="none" stroke="midnightblue" d="M150.294,-98.9059C158.808,-100.041 167.439,-101.192 175.821,-102.309"/>
<polygon fill="midnightblue" stroke="midnightblue" points="175.521,-105.8 185.896,-103.653 176.446,-98.8618 175.521,-105.8"/>
</g>
<!-- Node3 -->
<g id="node3" class="node"><title>Node3</title>
<g id="a_node3"><a xlink:href="classScenario.html#ab27cc8e0785d4cf0d9a7c83a8b3a4eac" target="_top" xlink:title="Scenario::DoOverlap">
<polygon fill="none" stroke="black" points="188.5,-57.5 188.5,-76.5 295.5,-76.5 295.5,-57.5 188.5,-57.5"/>
<text text-anchor="middle" x="242" y="-64.5" font-family="Helvetica,sans-Serif" font-size="10.00">Scenario::DoOverlap</text>
</a>
</g>
</g>
<!-- Node1&#45;&gt;Node3 -->
<g id="edge2" class="edge"><title>Node1&#45;&gt;Node3</title>
<path fill="none" stroke="midnightblue" d="M150.294,-79.0941C159.617,-77.8511 169.08,-76.5893 178.202,-75.3731"/>
<polygon fill="midnightblue" stroke="midnightblue" points="178.881,-78.8136 188.33,-74.0226 177.956,-71.875 178.881,-78.8136"/>
</g>
<!-- Node4 -->
<g id="node4" class="node"><title>Node4</title>
<g id="a_node4"><a xlink:href="classElement.html#ae9ae03dbc2a53e9dce866f8f90f52fbb" target="_top" xlink:title="Element::GetMinX">
<polygon fill="none" stroke="black" points="335.5,-114.5 335.5,-133.5 432.5,-133.5 432.5,-114.5 335.5,-114.5"/>
<text text-anchor="middle" x="384" y="-121.5" font-family="Helvetica,sans-Serif" font-size="10.00">Element::GetMinX</text>
</a>
</g>
</g>
<!-- Node3&#45;&gt;Node4 -->
<g id="edge3" class="edge"><title>Node3&#45;&gt;Node4</title>
<path fill="none" stroke="midnightblue" d="M271.224,-76.5601C279.895,-79.6847 289.413,-83.3065 298,-87 314.433,-94.0683 317.643,-97.7584 334,-105 338.409,-106.952 343.085,-108.907 347.731,-110.782"/>
<polygon fill="midnightblue" stroke="midnightblue" points="346.542,-114.075 357.129,-114.489 349.111,-107.564 346.542,-114.075"/>
</g>
<!-- Node5 -->
<g id="node5" class="node"><title>Node5</title>
<g id="a_node5"><a xlink:href="classElement.html#aea907c7c3bbcbe8752ced3032b04cb70" target="_top" xlink:title="Element::GetMaxX">
<polygon fill="none" stroke="black" points="334,-76.5 334,-95.5 434,-95.5 434,-76.5 334,-76.5"/>
<text text-anchor="middle" x="384" y="-83.5" font-family="Helvetica,sans-Serif" font-size="10.00">Element::GetMaxX</text>
</a>
</g>
</g>
<!-- Node3&#45;&gt;Node5 -->
<g id="edge4" class="edge"><title>Node3&#45;&gt;Node5</title>
<path fill="none" stroke="midnightblue" d="M295.529,-74.129C304.76,-75.3817 314.423,-76.6932 323.821,-77.9685"/>
<polygon fill="midnightblue" stroke="midnightblue" points="323.5,-81.457 333.88,-79.3337 324.441,-74.5206 323.5,-81.457"/>
</g>
<!-- Node6 -->
<g id="node6" class="node"><title>Node6</title>
<g id="a_node6"><a xlink:href="classElement.html#a3d06fffe381dbaba2bfe4b5b6d99611a" target="_top" xlink:title="Element::GetMinY">
<polygon fill="none" stroke="black" points="335.5,-38.5 335.5,-57.5 432.5,-57.5 432.5,-38.5 335.5,-38.5"/>
<text text-anchor="middle" x="384" y="-45.5" font-family="Helvetica,sans-Serif" font-size="10.00">Element::GetMinY</text>
</a>
</g>
</g>
<!-- Node3&#45;&gt;Node6 -->
<g id="edge5" class="edge"><title>Node3&#45;&gt;Node6</title>
<path fill="none" stroke="midnightblue" d="M295.529,-59.871C305.204,-58.5581 315.354,-57.1806 325.174,-55.8478"/>
<polygon fill="midnightblue" stroke="midnightblue" points="325.816,-59.2929 335.254,-54.4798 324.874,-52.3565 325.816,-59.2929"/>
</g>
<!-- Node7 -->
<g id="node7" class="node"><title>Node7</title>
<g id="a_node7"><a xlink:href="classElement.html#adf8fb018755ead3042185f00106af4f8" target="_top" xlink:title="Element::GetMaxY">
<polygon fill="none" stroke="black" points="334,-0.5 334,-19.5 434,-19.5 434,-0.5 334,-0.5"/>
<text text-anchor="middle" x="384" y="-7.5" font-family="Helvetica,sans-Serif" font-size="10.00">Element::GetMaxY</text>
</a>
</g>
</g>
<!-- Node3&#45;&gt;Node7 -->
<g id="edge6" class="edge"><title>Node3&#45;&gt;Node7</title>
<path fill="none" stroke="midnightblue" d="M265.372,-57.4695C283.753,-49.6851 310.495,-38.463 334,-29 338.745,-27.0897 343.762,-25.1048 348.704,-23.1697"/>
<polygon fill="midnightblue" stroke="midnightblue" points="349.974,-26.4311 358.024,-19.5424 347.435,-19.9078 349.974,-26.4311"/>
</g>
</g>
</svg>
