<?xml version="1.0" encoding="UTF-8" standalone="no"?>
<!DOCTYPE svg PUBLIC "-//W3C//DTD SVG 1.1//EN"
 "http://www.w3.org/Graphics/SVG/1.1/DTD/svg11.dtd">
<!-- Generated by graphviz version 2.36.0 (20140111.2315)
 -->
<!-- Title: Controller::SaveAllImagesAsJPEG Pages: 1 -->
<svg width="332pt" height="153pt"
 viewBox="0.00 0.00 332.00 153.00" xmlns="http://www.w3.org/2000/svg" xmlns:xlink="http://www.w3.org/1999/xlink">
<g id="graph0" class="graph" transform="scale(1 1) rotate(0) translate(4 149)">
<title>Controller::SaveAllImagesAsJPEG</title>
<!-- Node1 -->
<g id="node1" class="node"><title>Node1</title>
<polygon fill="#bfbfbf" stroke="black" points="0.5,-52 0.5,-82 131.5,-82 131.5,-52 0.5,-52"/>
<text text-anchor="start" x="8.5" y="-70" font-family="Helvetica,sans-Serif" font-size="10.00">Controller::SaveAllImages</text>
<text text-anchor="middle" x="66" y="-59" font-family="Helvetica,sans-Serif" font-size="10.00">AsJPEG</text>
</g>
<!-- Node2 -->
<g id="node2" class="node"><title>Node2</title>
<g id="a_node2"><a xlink:href="classFrameSelectorFactory.html#a8886c3d5d1575372892ab11af0e7d30d" target="_top" xlink:title="FrameSelectorFactory\l::GetFrameSelector">
<polygon fill="none" stroke="black" points="189.5,-115 189.5,-145 302.5,-145 302.5,-115 189.5,-115"/>
<text text-anchor="start" x="197.5" y="-133" font-family="Helvetica,sans-Serif" font-size="10.00">FrameSelectorFactory</text>
<text text-anchor="middle" x="246" y="-122" font-family="Helvetica,sans-Serif" font-size="10.00">::GetFrameSelector</text>
</a>
</g>
</g>
<!-- Node1&#45;&gt;Node2 -->
<g id="edge1" class="edge"><title>Node1&#45;&gt;Node2</title>
<path fill="none" stroke="midnightblue" d="M105.697,-82.0347C124.438,-89.1942 147.313,-97.7543 168,-105 174.328,-107.216 180.971,-109.475 187.592,-111.683"/>
<polygon fill="midnightblue" stroke="midnightblue" points="186.645,-115.056 197.238,-114.87 188.842,-108.409 186.645,-115.056"/>
</g>
<!-- Node3 -->
<g id="node3" class="node"><title>Node3</title>
<g id="a_node3"><a xlink:href="classFrameSelector.html#ab3a070c88275a75cb6aaf1001f8b2a64" target="_top" xlink:title="FrameSelector::GetImageCount">
<polygon fill="none" stroke="black" points="168.5,-76.5 168.5,-95.5 323.5,-95.5 323.5,-76.5 168.5,-76.5"/>
<text text-anchor="middle" x="246" y="-83.5" font-family="Helvetica,sans-Serif" font-size="10.00">FrameSelector::GetImageCount</text>
</a>
</g>
</g>
<!-- Node1&#45;&gt;Node3 -->
<g id="edge2" class="edge"><title>Node1&#45;&gt;Node3</title>
<path fill="none" stroke="midnightblue" d="M131.514,-73.8863C140.188,-74.8122 149.199,-75.7741 158.181,-76.7328"/>
<polygon fill="midnightblue" stroke="midnightblue" points="157.974,-80.2305 168.289,-77.8118 158.717,-73.2701 157.974,-80.2305"/>
</g>
<!-- Node4 -->
<g id="node4" class="node"><title>Node4</title>
<g id="a_node4"><a xlink:href="classFrameSelector.html#ac174e86068a781b9c3f020bf288cd7b6" target="_top" xlink:title="FrameSelector::ReadImage">
<polygon fill="none" stroke="black" points="177.5,-38.5 177.5,-57.5 314.5,-57.5 314.5,-38.5 177.5,-38.5"/>
<text text-anchor="middle" x="246" y="-45.5" font-family="Helvetica,sans-Serif" font-size="10.00">FrameSelector::ReadImage</text>
</a>
</g>
</g>
<!-- Node1&#45;&gt;Node4 -->
<g id="edge3" class="edge"><title>Node1&#45;&gt;Node4</title>
<path fill="none" stroke="midnightblue" d="M131.514,-60.1137C143.173,-58.8692 155.44,-57.5597 167.427,-56.2803"/>
<polygon fill="midnightblue" stroke="midnightblue" points="167.837,-59.7564 177.409,-55.2147 167.094,-52.796 167.837,-59.7564"/>
</g>
<!-- Node5 -->
<g id="node5" class="node"><title>Node5</title>
<g id="a_node5"><a xlink:href="classImage.html#aeb608aeba65746cadab9233a5f555a1d" target="_top" xlink:title="Image::GetRGBImage">
<polygon fill="none" stroke="black" points="189,-0.5 189,-19.5 303,-19.5 303,-0.5 189,-0.5"/>
<text text-anchor="middle" x="246" y="-7.5" font-family="Helvetica,sans-Serif" font-size="10.00">Image::GetRGBImage</text>
</a>
</g>
</g>
<!-- Node1&#45;&gt;Node5 -->
<g id="edge4" class="edge"><title>Node1&#45;&gt;Node5</title>
<path fill="none" stroke="midnightblue" d="M104.049,-51.8624C122.994,-44.4289 146.528,-35.6629 168,-29 175.853,-26.5631 184.233,-24.2291 192.466,-22.0828"/>
<polygon fill="midnightblue" stroke="midnightblue" points="193.559,-25.4164 202.39,-19.5634 191.836,-18.6316 193.559,-25.4164"/>
</g>
</g>
</svg>
