<?xml version="1.0" encoding="UTF-8" standalone="no"?>
<!DOCTYPE svg PUBLIC "-//W3C//DTD SVG 1.1//EN"
 "http://www.w3.org/Graphics/SVG/1.1/DTD/svg11.dtd">
<!-- Generated by graphviz version 2.36.0 (20140111.2315)
 -->
<!-- Title: Element::GetMinX Pages: 1 -->
<svg width="436pt" height="71pt"
 viewBox="0.00 0.00 436.00 71.00" xmlns="http://www.w3.org/2000/svg" xmlns:xlink="http://www.w3.org/1999/xlink">
<g id="graph0" class="graph" transform="scale(1 1) rotate(0) translate(4 67)">
<title>Element::GetMinX</title>
<!-- Node1 -->
<g id="node1" class="node"><title>Node1</title>
<polygon fill="#bfbfbf" stroke="black" points="0.5,-19.5 0.5,-38.5 97.5,-38.5 97.5,-19.5 0.5,-19.5"/>
<text text-anchor="middle" x="49" y="-26.5" font-family="Helvetica,sans-Serif" font-size="10.00">Element::GetMinX</text>
</g>
<!-- Node2 -->
<g id="node2" class="node"><title>Node2</title>
<g id="a_node2"><a xlink:href="classScenario.html#ab27cc8e0785d4cf0d9a7c83a8b3a4eac" target="_top" xlink:title="Scenario::DoOverlap">
<polygon fill="none" stroke="black" points="134.5,-38.5 134.5,-57.5 241.5,-57.5 241.5,-38.5 134.5,-38.5"/>
<text text-anchor="middle" x="188" y="-45.5" font-family="Helvetica,sans-Serif" font-size="10.00">Scenario::DoOverlap</text>
</a>
</g>
</g>
<!-- Node1&#45;&gt;Node2 -->
<g id="edge1" class="edge"><title>Node1&#45;&gt;Node2</title>
<path fill="none" stroke="midnightblue" d="M107.471,-36.9704C116.4,-38.2088 125.587,-39.4828 134.401,-40.7053"/>
<polygon fill="midnightblue" stroke="midnightblue" points="107.917,-33.4989 97.5315,-35.592 106.956,-40.4326 107.917,-33.4989"/>
</g>
<!-- Node4 -->
<g id="node4" class="node"><title>Node4</title>
<g id="a_node4"><a xlink:href="classScenario.html#aca3e2bf6176bb8bfdf1a94a6198505b7" target="_top" xlink:title="Scenario::DoContain">
<polygon fill="none" stroke="black" points="134.5,-0.5 134.5,-19.5 241.5,-19.5 241.5,-0.5 134.5,-0.5"/>
<text text-anchor="middle" x="188" y="-7.5" font-family="Helvetica,sans-Serif" font-size="10.00">Scenario::DoContain</text>
</a>
</g>
</g>
<!-- Node1&#45;&gt;Node4 -->
<g id="edge3" class="edge"><title>Node1&#45;&gt;Node4</title>
<path fill="none" stroke="midnightblue" d="M107.471,-21.0296C116.4,-19.7912 125.587,-18.5172 134.401,-17.2947"/>
<polygon fill="midnightblue" stroke="midnightblue" points="106.956,-17.5674 97.5315,-22.408 107.917,-24.5011 106.956,-17.5674"/>
</g>
<!-- Node3 -->
<g id="node3" class="node"><title>Node3</title>
<g id="a_node3"><a xlink:href="classHumansInFrontOfBusScenario.html#a3eb02befb731be6f9ef9c7e54fae6560" target="_top" xlink:title="HumansInFrontOfBusScenario\l::Detect">
<polygon fill="none" stroke="black" points="278,-33 278,-63 428,-63 428,-33 278,-33"/>
<text text-anchor="start" x="286" y="-51" font-family="Helvetica,sans-Serif" font-size="10.00">HumansInFrontOfBusScenario</text>
<text text-anchor="middle" x="353" y="-40" font-family="Helvetica,sans-Serif" font-size="10.00">::Detect</text>
</a>
</g>
</g>
<!-- Node2&#45;&gt;Node3 -->
<g id="edge2" class="edge"><title>Node2&#45;&gt;Node3</title>
<path fill="none" stroke="midnightblue" d="M252.026,-48C260.445,-48 269.14,-48 277.728,-48"/>
<polygon fill="midnightblue" stroke="midnightblue" points="251.921,-44.5001 241.921,-48 251.921,-51.5001 251.921,-44.5001"/>
</g>
</g>
</svg>
