<?xml version="1.0" encoding="UTF-8" standalone="no"?>
<!DOCTYPE svg PUBLIC "-//W3C//DTD SVG 1.1//EN"
 "http://www.w3.org/Graphics/SVG/1.1/DTD/svg11.dtd">
<!-- Generated by graphviz version 2.36.0 (20140111.2315)
 -->
<!-- Title: Scenario::ComputeCenterDistance Pages: 1 -->
<svg width="324pt" height="66pt"
 viewBox="0.00 0.00 324.00 66.00" xmlns="http://www.w3.org/2000/svg" xmlns:xlink="http://www.w3.org/1999/xlink">
<g id="graph0" class="graph" transform="scale(1 1) rotate(0) translate(4 62)">
<title>Scenario::ComputeCenterDistance</title>
<!-- Node1 -->
<g id="node1" class="node"><title>Node1</title>
<polygon fill="#bfbfbf" stroke="black" points="0.5,-19.5 0.5,-38.5 169.5,-38.5 169.5,-19.5 0.5,-19.5"/>
<text text-anchor="middle" x="85" y="-26.5" font-family="Helvetica,sans-Serif" font-size="10.00">Scenario::ComputeCenterDistance</text>
</g>
<!-- Node2 -->
<g id="node2" class="node"><title>Node2</title>
<g id="a_node2"><a xlink:href="classElement.html#a9a7850a1ae37ffb9dbe9c546b2291460" target="_top" xlink:title="Element::GetCenterX">
<polygon fill="none" stroke="black" points="206,-38.5 206,-57.5 316,-57.5 316,-38.5 206,-38.5"/>
<text text-anchor="middle" x="261" y="-45.5" font-family="Helvetica,sans-Serif" font-size="10.00">Element::GetCenterX</text>
</a>
</g>
</g>
<!-- Node1&#45;&gt;Node2 -->
<g id="edge1" class="edge"><title>Node1&#45;&gt;Node2</title>
<path fill="none" stroke="midnightblue" d="M169.687,-38.1383C178.353,-39.0845 187.062,-40.0355 195.471,-40.9537"/>
<polygon fill="midnightblue" stroke="midnightblue" points="195.234,-44.4486 205.555,-42.0549 195.994,-37.4899 195.234,-44.4486"/>
</g>
<!-- Node3 -->
<g id="node3" class="node"><title>Node3</title>
<g id="a_node3"><a xlink:href="classElement.html#a249a543f14f4b117aebd5c001a8e9d0d" target="_top" xlink:title="Element::GetCenterY">
<polygon fill="none" stroke="black" points="206,-0.5 206,-19.5 316,-19.5 316,-0.5 206,-0.5"/>
<text text-anchor="middle" x="261" y="-7.5" font-family="Helvetica,sans-Serif" font-size="10.00">Element::GetCenterY</text>
</a>
</g>
</g>
<!-- Node1&#45;&gt;Node3 -->
<g id="edge2" class="edge"><title>Node1&#45;&gt;Node3</title>
<path fill="none" stroke="midnightblue" d="M169.687,-19.8617C178.353,-18.9155 187.062,-17.9645 195.471,-17.0463"/>
<polygon fill="midnightblue" stroke="midnightblue" points="195.994,-20.5101 205.555,-15.9451 195.234,-13.5514 195.994,-20.5101"/>
</g>
</g>
</svg>
