<?xml version="1.0" encoding="UTF-8" standalone="no"?>
<!DOCTYPE svg PUBLIC "-//W3C//DTD SVG 1.1//EN"
 "http://www.w3.org/Graphics/SVG/1.1/DTD/svg11.dtd">
<!-- Generated by graphviz version 2.36.0 (20140111.2315)
 -->
<!-- Title: Image::GetRGBImage Pages: 1 -->
<!--zoomable 154 -->
<svg id="main" version="1.1" xmlns="http://www.w3.org/2000/svg" xmlns:xlink="http://www.w3.org/1999/xlink" xml:space="preserve" onload="init(evt)">
<style type="text/css"><![CDATA[
.edge:hover path { stroke: red; }
.edge:hover polygon { stroke: red; fill: red; }
]]></style>
<script type="text/javascript"><![CDATA[
var edges = document.getElementsByTagName('g');
if (edges && edges.length) {
  for (var i=0;i<edges.length;i++) {
    if (edges[i].id.substr(0,4)=='edge') {
      edges[i].setAttribute('class','edge');
    }
  }
}
]]></script>
        <defs>
                <circle id="rim" cx="0" cy="0" r="7"/>
                <circle id="rim2" cx="0" cy="0" r="3.5"/>
                <g id="zoomPlus">
                        <use xlink:href="#rim" fill="#404040">
                                <set attributeName="fill" to="#808080" begin="zoomplus.mouseover" end="zoomplus.mouseout"/>
                        </use>
                        <path d="M-4,0h8M0,-4v8" fill="none" stroke="white" stroke-width="1.5" pointer-events="none"/>
                </g>
                <g id="zoomMin">
                        <use xlink:href="#rim" fill="#404040">
                                <set attributeName="fill" to="#808080" begin="zoomminus.mouseover" end="zoomminus.mouseout"/>
                        </use>
                        <path d="M-4,0h8" fill="none" stroke="white" stroke-width="1.5" pointer-events="none"/>
                </g>
                <g id="dirArrow">
                        <path fill="none" stroke="white" stroke-width="1.5" d="M0,-3.0v7 M-2.5,-0.5L0,-3.0L2.5,-0.5"/>
                </g>
               <g id="resetDef">
                       <use xlink:href="#rim2" fill="#404040">
                               <set attributeName="fill" to="#808080" begin="reset.mouseover" end="reset.mouseout"/>
                       </use>
               </g>
        </defs>

<script type="text/javascript">
var viewWidth = 508;
var viewHeight = 154;
var sectionId = 'dynsection-3';
</script>
<script xlink:href="svgpan.js"/>
<svg id="graph" class="graph">
<g id="viewport">
<title>Image::GetRGBImage</title>
<!-- Node1 -->
<g id="node1" class="node"><title>Node1</title>
<polygon fill="#bfbfbf" stroke="black" points="0,-60.5 0,-79.5 114,-79.5 114,-60.5 0,-60.5"/>
<text text-anchor="middle" x="57" y="-67.5" font-family="Helvetica,sans-Serif" font-size="10.00">Image::GetRGBImage</text>
</g>
<!-- Node2 -->
<g id="node2" class="node"><title>Node2</title>
<g id="a_node2"><a xlink:href="classDetection.html#a941a728fc31bb699c0ffdfb37363c786" target="_top" xlink:title="Detection::ProcessFrame">
<polygon fill="none" stroke="black" points="180,-126.5 180,-145.5 308,-145.5 308,-126.5 180,-126.5"/>
<text text-anchor="middle" x="244" y="-133.5" font-family="Helvetica,sans-Serif" font-size="10.00">Detection::ProcessFrame</text>
</a>
</g>
</g>
<!-- Node1&#45;&gt;Node2 -->
<g id="edge1" class="edge"><title>Node1&#45;&gt;Node2</title>
<path fill="none" stroke="midnightblue" d="M82.8242,-84.5631C100.925,-94.6411 126.326,-107.686 150,-116 161.842,-120.159 174.85,-123.611 187.287,-126.41"/>
<polygon fill="midnightblue" stroke="midnightblue" points="84.4978,-81.4886 74.0718,-79.6041 81.047,-87.5789 84.4978,-81.4886"/>
</g>
<!-- Node4 -->
<g id="node4" class="node"><title>Node4</title>
<g id="a_node4"><a xlink:href="classController.html#afd6375744f4f31dd254d1e5f1316ff4b" target="_top" xlink:title="Controller::SaveAllImages\lAsJPEG">
<polygon fill="none" stroke="black" points="178.5,-77 178.5,-107 309.5,-107 309.5,-77 178.5,-77"/>
<text text-anchor="start" x="186.5" y="-95" font-family="Helvetica,sans-Serif" font-size="10.00">Controller::SaveAllImages</text>
<text text-anchor="middle" x="244" y="-84" font-family="Helvetica,sans-Serif" font-size="10.00">AsJPEG</text>
</a>
</g>
</g>
<!-- Node1&#45;&gt;Node4 -->
<g id="edge3" class="edge"><title>Node1&#45;&gt;Node4</title>
<path fill="none" stroke="midnightblue" d="M124.21,-77.8736C141.846,-79.9709 160.873,-82.2336 178.421,-84.3203"/>
<polygon fill="midnightblue" stroke="midnightblue" points="124.352,-74.3659 114.008,-76.6604 123.525,-81.3169 124.352,-74.3659"/>
</g>
<!-- Node5 -->
<g id="node5" class="node"><title>Node5</title>
<g id="a_node5"><a xlink:href="classImageView.html#af5124b9bdaa6733746002b9bb2d3db63" target="_top" xlink:title="ImageView::ShowImage">
<polygon fill="none" stroke="black" points="182.5,-38.5 182.5,-57.5 305.5,-57.5 305.5,-38.5 182.5,-38.5"/>
<text text-anchor="middle" x="244" y="-45.5" font-family="Helvetica,sans-Serif" font-size="10.00">ImageView::ShowImage</text>
</a>
</g>
</g>
<!-- Node1&#45;&gt;Node5 -->
<g id="edge4" class="edge"><title>Node1&#45;&gt;Node5</title>
<path fill="none" stroke="midnightblue" d="M124.074,-62.1426C143.073,-59.8832 163.697,-57.4307 182.351,-55.2123"/>
<polygon fill="midnightblue" stroke="midnightblue" points="123.525,-58.6831 114.008,-63.3396 124.352,-65.6341 123.525,-58.6831"/>
</g>
<!-- Node6 -->
<g id="node6" class="node"><title>Node6</title>
<g id="a_node6"><a xlink:href="classImageView.html#a6ae33c0595f67335b7b30a868ac73bee" target="_top" xlink:title="ImageView::ShowImageAndDetections">
<polygon fill="none" stroke="black" points="150,-0.5 150,-19.5 338,-19.5 338,-0.5 150,-0.5"/>
<text text-anchor="middle" x="244" y="-7.5" font-family="Helvetica,sans-Serif" font-size="10.00">ImageView::ShowImageAndDetections</text>
</a>
</g>
</g>
<!-- Node1&#45;&gt;Node6 -->
<g id="edge5" class="edge"><title>Node1&#45;&gt;Node6</title>
<path fill="none" stroke="midnightblue" d="M85.503,-55.847C103.47,-47.08 127.662,-36.1649 150,-29 161.612,-25.2755 174.282,-22.1166 186.427,-19.5076"/>
<polygon fill="midnightblue" stroke="midnightblue" points="83.6134,-52.8775 76.2127,-60.4592 86.726,-59.1474 83.6134,-52.8775"/>
</g>
<!-- Node3 -->
<g id="node3" class="node"><title>Node3</title>
<g id="a_node3"><a xlink:href="classController.html#ae6a344da6f15085a06114ee0514a8a24" target="_top" xlink:title="Controller::AnalyseVideo">
<polygon fill="none" stroke="black" points="374.5,-126.5 374.5,-145.5 499.5,-145.5 499.5,-126.5 374.5,-126.5"/>
<text text-anchor="middle" x="437" y="-133.5" font-family="Helvetica,sans-Serif" font-size="10.00">Controller::AnalyseVideo</text>
</a>
</g>
</g>
<!-- Node2&#45;&gt;Node3 -->
<g id="edge2" class="edge"><title>Node2&#45;&gt;Node3</title>
<path fill="none" stroke="midnightblue" d="M318.213,-136C336.724,-136 356.417,-136 374.297,-136"/>
<polygon fill="midnightblue" stroke="midnightblue" points="318.07,-132.5 308.07,-136 318.07,-139.5 318.07,-132.5"/>
</g>
</g>
</svg>
        <g id="navigator" transform="translate(0 0)" fill="#404254">
                <rect fill="#f2f5e9" fill-opacity="0.5" stroke="#606060" stroke-width=".5" x="0" y="0" width="60" height="60"/>
                <use id="zoomplus" xlink:href="#zoomPlus" x="17" y="9" onmousedown="handleZoom(evt,'in')"/>
                <use id="zoomminus" xlink:href="#zoomMin" x="42" y="9" onmousedown="handleZoom(evt,'out')"/>
                <use id="reset" xlink:href="#resetDef" x="30" y="36" onmousedown="handleReset()"/>
                <g id="arrowUp" xlink:href="#dirArrow" transform="translate(30 24)" onmousedown="handlePan(0,-1)">
                  <use xlink:href="#rim" fill="#404040">
                        <set attributeName="fill" to="#808080" begin="arrowUp.mouseover" end="arrowUp.mouseout"/>
                  </use>
                  <path fill="none" stroke="white" stroke-width="1.5" d="M0,-3.0v7 M-2.5,-0.5L0,-3.0L2.5,-0.5"/>
                </g>
                <g id="arrowRight" xlink:href="#dirArrow" transform="rotate(90) translate(36 -43)" onmousedown="handlePan(1,0)">
                  <use xlink:href="#rim" fill="#404040">
                        <set attributeName="fill" to="#808080" begin="arrowRight.mouseover" end="arrowRight.mouseout"/>
                  </use>
                  <path fill="none" stroke="white" stroke-width="1.5" d="M0,-3.0v7 M-2.5,-0.5L0,-3.0L2.5,-0.5"/>
                </g>
                <g id="arrowDown" xlink:href="#dirArrow" transform="rotate(180) translate(-30 -48)" onmousedown="handlePan(0,1)">
                  <use xlink:href="#rim" fill="#404040">
                        <set attributeName="fill" to="#808080" begin="arrowDown.mouseover" end="arrowDown.mouseout"/>
                  </use>
                  <path fill="none" stroke="white" stroke-width="1.5" d="M0,-3.0v7 M-2.5,-0.5L0,-3.0L2.5,-0.5"/>
                </g>
                <g id="arrowLeft" xlink:href="#dirArrow" transform="rotate(270) translate(-36 17)" onmousedown="handlePan(-1,0)">
                  <use xlink:href="#rim" fill="#404040">
                        <set attributeName="fill" to="#808080" begin="arrowLeft.mouseover" end="arrowLeft.mouseout"/>
                  </use>
                  <path fill="none" stroke="white" stroke-width="1.5" d="M0,-3.0v7 M-2.5,-0.5L0,-3.0L2.5,-0.5"/>
                </g>
        </g>
        <svg viewBox="0 0 15 15" width="100%" height="30px" preserveAspectRatio="xMaxYMin meet">
         <g id="arrow_out" transform="scale(0.3 0.3)">
          <a xlink:href="classImage_aeb608aeba65746cadab9233a5f555a1d_icgraph_org.svg" target="_base">
           <rect id="button" ry="5" rx="5" y="6" x="6" height="38" width="38"
                fill="#f2f5e9" fill-opacity="0.5" stroke="#606060" stroke-width="1.0"/>
           <path id="arrow"
             d="M 11.500037,31.436501 C 11.940474,20.09759 22.043105,11.32322 32.158766,21.979434 L 37.068811,17.246167 C 37.068811,17.246167 37.088388,32 37.088388,32 L 22.160133,31.978069 C 22.160133,31.978069 26.997745,27.140456 26.997745,27.140456 C 18.528582,18.264221 13.291696,25.230495 11.500037,31.436501 z"
             style="fill:#404040;"/>
          </a>
         </g>
        </svg>
</svg>
