<?xml version="1.0" encoding="UTF-8" standalone="no"?>
<!DOCTYPE svg PUBLIC "-//W3C//DTD SVG 1.1//EN"
 "http://www.w3.org/Graphics/SVG/1.1/DTD/svg11.dtd">
<!-- Generated by graphviz version 2.36.0 (20140111.2315)
 -->
<!-- Title: HDF5FrameSelector::ReadAllImages Pages: 1 -->
<svg width="514pt" height="109pt"
 viewBox="0.00 0.00 514.00 109.00" xmlns="http://www.w3.org/2000/svg" xmlns:xlink="http://www.w3.org/1999/xlink">
<g id="graph0" class="graph" transform="scale(1 1) rotate(0) translate(4 105)">
<title>HDF5FrameSelector::ReadAllImages</title>
<!-- Node1 -->
<g id="node1" class="node"><title>Node1</title>
<polygon fill="#bfbfbf" stroke="black" points="0.5,-24 0.5,-54 113.5,-54 113.5,-24 0.5,-24"/>
<text text-anchor="start" x="8.5" y="-42" font-family="Helvetica,sans-Serif" font-size="10.00">HDF5FrameSelector::</text>
<text text-anchor="middle" x="57" y="-31" font-family="Helvetica,sans-Serif" font-size="10.00">ReadAllImages</text>
</g>
<!-- Node2 -->
<g id="node2" class="node"><title>Node2</title>
<g id="a_node2"><a xlink:href="classHDFReader.html#a5b9e493c8ec8cf001105dd262336e10b" target="_top" xlink:title="HDFReader::ReadAllProtobuf\lFiles">
<polygon fill="none" stroke="black" points="150,-49 150,-79 296,-79 296,-49 150,-49"/>
<text text-anchor="start" x="158" y="-67" font-family="Helvetica,sans-Serif" font-size="10.00">HDFReader::ReadAllProtobuf</text>
<text text-anchor="middle" x="223" y="-56" font-family="Helvetica,sans-Serif" font-size="10.00">Files</text>
</a>
</g>
</g>
<!-- Node1&#45;&gt;Node2 -->
<g id="edge1" class="edge"><title>Node1&#45;&gt;Node2</title>
<path fill="none" stroke="midnightblue" d="M113.523,-47.4639C122.03,-48.7607 130.963,-50.1224 139.897,-51.4844"/>
<polygon fill="midnightblue" stroke="midnightblue" points="139.55,-54.9717 149.963,-53.0187 140.604,-48.0516 139.55,-54.9717"/>
</g>
<!-- Node5 -->
<g id="node5" class="node"><title>Node5</title>
<g id="a_node5"><a xlink:href="classProtobufImageWrapper.html#aba70c98783a278dd1b62771c244cf3f9" target="_top" xlink:title="ProtobufImageWrapper\l::ParseFromArray">
<polygon fill="none" stroke="black" points="164.5,-0 164.5,-30 281.5,-30 281.5,-0 164.5,-0"/>
<text text-anchor="start" x="172.5" y="-18" font-family="Helvetica,sans-Serif" font-size="10.00">ProtobufImageWrapper</text>
<text text-anchor="middle" x="223" y="-7" font-family="Helvetica,sans-Serif" font-size="10.00">::ParseFromArray</text>
</a>
</g>
</g>
<!-- Node1&#45;&gt;Node5 -->
<g id="edge4" class="edge"><title>Node1&#45;&gt;Node5</title>
<path fill="none" stroke="midnightblue" d="M113.523,-30.8747C126.556,-28.9675 140.588,-26.9139 154.094,-24.9374"/>
<polygon fill="midnightblue" stroke="midnightblue" points="154.907,-28.3558 164.295,-23.4446 153.894,-21.4296 154.907,-28.3558"/>
</g>
<!-- Node3 -->
<g id="node3" class="node"><title>Node3</title>
<g id="a_node3"><a xlink:href="classHDFReader.html#a679c61f47dbc9077c1628aae6688f40d" target="_top" xlink:title="HDFReader::GetNumberOfProtobuf\lFiles">
<polygon fill="none" stroke="black" points="332.5,-71 332.5,-101 505.5,-101 505.5,-71 332.5,-71"/>
<text text-anchor="start" x="340.5" y="-89" font-family="Helvetica,sans-Serif" font-size="10.00">HDFReader::GetNumberOfProtobuf</text>
<text text-anchor="middle" x="419" y="-78" font-family="Helvetica,sans-Serif" font-size="10.00">Files</text>
</a>
</g>
</g>
<!-- Node2&#45;&gt;Node3 -->
<g id="edge2" class="edge"><title>Node2&#45;&gt;Node3</title>
<path fill="none" stroke="midnightblue" d="M296.238,-72.192C304.678,-73.1491 313.386,-74.1366 322.082,-75.1228"/>
<polygon fill="midnightblue" stroke="midnightblue" points="321.938,-78.6288 332.269,-76.2779 322.727,-71.6733 321.938,-78.6288"/>
</g>
<!-- Node4 -->
<g id="node4" class="node"><title>Node4</title>
<g id="a_node4"><a xlink:href="classHDFReader.html#a8be8f7b773c8547b5ace39960541fd33" target="_top" xlink:title="HDFReader::ReadOneProtobufFile">
<polygon fill="none" stroke="black" points="334.5,-32.5 334.5,-51.5 503.5,-51.5 503.5,-32.5 334.5,-32.5"/>
<text text-anchor="middle" x="419" y="-39.5" font-family="Helvetica,sans-Serif" font-size="10.00">HDFReader::ReadOneProtobufFile</text>
</a>
</g>
</g>
<!-- Node2&#45;&gt;Node4 -->
<g id="edge3" class="edge"><title>Node2&#45;&gt;Node4</title>
<path fill="none" stroke="midnightblue" d="M296.238,-55.808C305.336,-54.7763 314.746,-53.7092 324.117,-52.6466"/>
<polygon fill="midnightblue" stroke="midnightblue" points="324.711,-56.1017 334.253,-51.4971 323.922,-49.1463 324.711,-56.1017"/>
</g>
</g>
</svg>
