<?xml version="1.0" encoding="UTF-8" standalone="no"?>
<!DOCTYPE svg PUBLIC "-//W3C//DTD SVG 1.1//EN"
 "http://www.w3.org/Graphics/SVG/1.1/DTD/svg11.dtd">
<!-- Generated by graphviz version 2.36.0 (20140111.2315)
 -->
<!-- Title: FrameDetectionData::AddElementsOfType Pages: 1 -->
<svg width="448pt" height="38pt"
 viewBox="0.00 0.00 448.00 38.00" xmlns="http://www.w3.org/2000/svg" xmlns:xlink="http://www.w3.org/1999/xlink">
<g id="graph0" class="graph" transform="scale(1 1) rotate(0) translate(4 34)">
<title>FrameDetectionData::AddElementsOfType</title>
<!-- Node1 -->
<g id="node1" class="node"><title>Node1</title>
<polygon fill="#bfbfbf" stroke="black" points="0.5,-0 0.5,-30 113.5,-30 113.5,-0 0.5,-0"/>
<text text-anchor="start" x="8.5" y="-18" font-family="Helvetica,sans-Serif" font-size="10.00">FrameDetectionData</text>
<text text-anchor="middle" x="57" y="-7" font-family="Helvetica,sans-Serif" font-size="10.00">::AddElementsOfType</text>
</g>
<!-- Node2 -->
<g id="node2" class="node"><title>Node2</title>
<g id="a_node2"><a xlink:href="classDetection.html#a941a728fc31bb699c0ffdfb37363c786" target="_top" xlink:title="Detection::ProcessFrame">
<polygon fill="none" stroke="black" points="150,-5.5 150,-24.5 278,-24.5 278,-5.5 150,-5.5"/>
<text text-anchor="middle" x="214" y="-12.5" font-family="Helvetica,sans-Serif" font-size="10.00">Detection::ProcessFrame</text>
</a>
</g>
</g>
<!-- Node1&#45;&gt;Node2 -->
<g id="edge1" class="edge"><title>Node1&#45;&gt;Node2</title>
<path fill="none" stroke="midnightblue" d="M123.638,-15C132.359,-15 141.286,-15 149.963,-15"/>
<polygon fill="midnightblue" stroke="midnightblue" points="123.521,-11.5001 113.521,-15 123.521,-18.5001 123.521,-11.5001"/>
</g>
<!-- Node3 -->
<g id="node3" class="node"><title>Node3</title>
<g id="a_node3"><a xlink:href="classController.html#ae6a344da6f15085a06114ee0514a8a24" target="_top" xlink:title="Controller::AnalyseVideo">
<polygon fill="none" stroke="black" points="314.5,-5.5 314.5,-24.5 439.5,-24.5 439.5,-5.5 314.5,-5.5"/>
<text text-anchor="middle" x="377" y="-12.5" font-family="Helvetica,sans-Serif" font-size="10.00">Controller::AnalyseVideo</text>
</a>
</g>
</g>
<!-- Node2&#45;&gt;Node3 -->
<g id="edge2" class="edge"><title>Node2&#45;&gt;Node3</title>
<path fill="none" stroke="midnightblue" d="M288.305,-15C297.005,-15 305.817,-15 314.331,-15"/>
<polygon fill="midnightblue" stroke="midnightblue" points="288.169,-11.5001 278.169,-15 288.169,-18.5001 288.169,-11.5001"/>
</g>
</g>
</svg>
