<?xml version="1.0" encoding="UTF-8" standalone="no"?>
<!DOCTYPE svg PUBLIC "-//W3C//DTD SVG 1.1//EN"
 "http://www.w3.org/Graphics/SVG/1.1/DTD/svg11.dtd">
<!-- Generated by graphviz version 2.36.0 (20140111.2315)
 -->
<!-- Title: HDF5FrameSelector::ReadImage Pages: 1 -->
<svg width="328pt" height="339pt"
 viewBox="0.00 0.00 328.00 339.00" xmlns="http://www.w3.org/2000/svg" xmlns:xlink="http://www.w3.org/1999/xlink">
<g id="graph0" class="graph" transform="scale(1 1) rotate(0) translate(4 335)">
<title>HDF5FrameSelector::ReadImage</title>
<!-- Node1 -->
<g id="node1" class="node"><title>Node1</title>
<polygon fill="#bfbfbf" stroke="black" points="0.5,-139 0.5,-169 113.5,-169 113.5,-139 0.5,-139"/>
<text text-anchor="start" x="8.5" y="-157" font-family="Helvetica,sans-Serif" font-size="10.00">HDF5FrameSelector::</text>
<text text-anchor="middle" x="57" y="-146" font-family="Helvetica,sans-Serif" font-size="10.00">ReadImage</text>
</g>
<!-- Node2 -->
<g id="node2" class="node"><title>Node2</title>
<g id="a_node2"><a xlink:href="classHDFReader.html#a8be8f7b773c8547b5ace39960541fd33" target="_top" xlink:title="HDFReader::ReadOneProtobufFile">
<polygon fill="none" stroke="black" points="150.5,-311.5 150.5,-330.5 319.5,-330.5 319.5,-311.5 150.5,-311.5"/>
<text text-anchor="middle" x="235" y="-318.5" font-family="Helvetica,sans-Serif" font-size="10.00">HDFReader::ReadOneProtobufFile</text>
</a>
</g>
</g>
<!-- Node1&#45;&gt;Node2 -->
<g id="edge1" class="edge"><title>Node1&#45;&gt;Node2</title>
<path fill="none" stroke="midnightblue" d="M63.0581,-169.229C73.8927,-199.391 102.31,-266.761 150,-301 153.425,-303.459 157.111,-305.619 160.96,-307.516"/>
<polygon fill="midnightblue" stroke="midnightblue" points="159.62,-310.75 170.189,-311.483 162.384,-304.318 159.62,-310.75"/>
</g>
<!-- Node3 -->
<g id="node3" class="node"><title>Node3</title>
<g id="a_node3"><a xlink:href="classProtobufImageWrapper.html#aba70c98783a278dd1b62771c244cf3f9" target="_top" xlink:title="ProtobufImageWrapper\l::ParseFromArray">
<polygon fill="none" stroke="black" points="176.5,-262 176.5,-292 293.5,-292 293.5,-262 176.5,-262"/>
<text text-anchor="start" x="184.5" y="-280" font-family="Helvetica,sans-Serif" font-size="10.00">ProtobufImageWrapper</text>
<text text-anchor="middle" x="235" y="-269" font-family="Helvetica,sans-Serif" font-size="10.00">::ParseFromArray</text>
</a>
</g>
</g>
<!-- Node1&#45;&gt;Node3 -->
<g id="edge2" class="edge"><title>Node1&#45;&gt;Node3</title>
<path fill="none" stroke="midnightblue" d="M68.3159,-169.309C83.639,-190.886 114.457,-230.055 150,-252 155.268,-255.252 160.983,-258.102 166.87,-260.596"/>
<polygon fill="midnightblue" stroke="midnightblue" points="165.635,-263.871 176.224,-264.227 168.168,-257.345 165.635,-263.871"/>
</g>
<!-- Node4 -->
<g id="node4" class="node"><title>Node4</title>
<g id="a_node4"><a xlink:href="classProtobufImageWrapper.html#a444790ea96785a92ab17a8be689f9872" target="_top" xlink:title="ProtobufImageWrapper\l::GetImagePayload">
<polygon fill="none" stroke="black" points="176.5,-213 176.5,-243 293.5,-243 293.5,-213 176.5,-213"/>
<text text-anchor="start" x="184.5" y="-231" font-family="Helvetica,sans-Serif" font-size="10.00">ProtobufImageWrapper</text>
<text text-anchor="middle" x="235" y="-220" font-family="Helvetica,sans-Serif" font-size="10.00">::GetImagePayload</text>
</a>
</g>
</g>
<!-- Node1&#45;&gt;Node4 -->
<g id="edge3" class="edge"><title>Node1&#45;&gt;Node4</title>
<path fill="none" stroke="midnightblue" d="M83.1126,-169.141C101.244,-179.631 126.561,-193.384 150,-203 155.728,-205.35 161.756,-207.584 167.846,-209.681"/>
<polygon fill="midnightblue" stroke="midnightblue" points="166.837,-213.034 177.431,-212.858 169.04,-206.389 166.837,-213.034"/>
</g>
<!-- Node5 -->
<g id="node5" class="node"><title>Node5</title>
<g id="a_node5"><a xlink:href="classProtobufImageWrapper.html#aabff426d3c841dad57cbd0f16f5382cd" target="_top" xlink:title="ProtobufImageWrapper\l::GetImageWidth">
<polygon fill="none" stroke="black" points="176.5,-164 176.5,-194 293.5,-194 293.5,-164 176.5,-164"/>
<text text-anchor="start" x="184.5" y="-182" font-family="Helvetica,sans-Serif" font-size="10.00">ProtobufImageWrapper</text>
<text text-anchor="middle" x="235" y="-171" font-family="Helvetica,sans-Serif" font-size="10.00">::GetImageWidth</text>
</a>
</g>
</g>
<!-- Node1&#45;&gt;Node5 -->
<g id="edge4" class="edge"><title>Node1&#45;&gt;Node5</title>
<path fill="none" stroke="midnightblue" d="M113.688,-161.91C130.356,-164.278 148.821,-166.901 166.179,-169.366"/>
<polygon fill="midnightblue" stroke="midnightblue" points="165.856,-172.856 176.249,-170.797 166.841,-165.925 165.856,-172.856"/>
</g>
<!-- Node6 -->
<g id="node6" class="node"><title>Node6</title>
<g id="a_node6"><a xlink:href="classProtobufImageWrapper.html#a7c01e9c1075bc30378996282e17d10a6" target="_top" xlink:title="ProtobufImageWrapper\l::GetImageHeight">
<polygon fill="none" stroke="black" points="176.5,-115 176.5,-145 293.5,-145 293.5,-115 176.5,-115"/>
<text text-anchor="start" x="184.5" y="-133" font-family="Helvetica,sans-Serif" font-size="10.00">ProtobufImageWrapper</text>
<text text-anchor="middle" x="235" y="-122" font-family="Helvetica,sans-Serif" font-size="10.00">::GetImageHeight</text>
</a>
</g>
</g>
<!-- Node1&#45;&gt;Node6 -->
<g id="edge5" class="edge"><title>Node1&#45;&gt;Node6</title>
<path fill="none" stroke="midnightblue" d="M113.688,-146.406C130.356,-144.133 148.821,-141.615 166.179,-139.248"/>
<polygon fill="midnightblue" stroke="midnightblue" points="166.814,-142.694 176.249,-137.875 165.868,-135.758 166.814,-142.694"/>
</g>
<!-- Node7 -->
<g id="node7" class="node"><title>Node7</title>
<g id="a_node7"><a xlink:href="classBayerImage.html#af917fa2041f656b0a85140ca8c8fd846" target="_top" xlink:title="BayerImage::GetImageWidth">
<polygon fill="none" stroke="black" points="163.5,-76.5 163.5,-95.5 306.5,-95.5 306.5,-76.5 163.5,-76.5"/>
<text text-anchor="middle" x="235" y="-83.5" font-family="Helvetica,sans-Serif" font-size="10.00">BayerImage::GetImageWidth</text>
</a>
</g>
</g>
<!-- Node1&#45;&gt;Node7 -->
<g id="edge6" class="edge"><title>Node1&#45;&gt;Node7</title>
<path fill="none" stroke="midnightblue" d="M82.9958,-138.799C101.072,-128.35 126.371,-114.822 150,-106 157.974,-103.023 166.544,-100.382 175.052,-98.0758"/>
<polygon fill="midnightblue" stroke="midnightblue" points="176.161,-101.404 184.972,-95.5213 174.415,-94.6256 176.161,-101.404"/>
</g>
<!-- Node8 -->
<g id="node8" class="node"><title>Node8</title>
<g id="a_node8"><a xlink:href="classBayerImage.html#a494f5e4be09a2d2f8e4c78a536d3ce85" target="_top" xlink:title="BayerImage::GetImageHeight">
<polygon fill="none" stroke="black" points="162,-38.5 162,-57.5 308,-57.5 308,-38.5 162,-38.5"/>
<text text-anchor="middle" x="235" y="-45.5" font-family="Helvetica,sans-Serif" font-size="10.00">BayerImage::GetImageHeight</text>
</a>
</g>
</g>
<!-- Node1&#45;&gt;Node8 -->
<g id="edge7" class="edge"><title>Node1&#45;&gt;Node8</title>
<path fill="none" stroke="midnightblue" d="M69.608,-138.819C85.5281,-119.111 116.056,-85.1036 150,-67 154.308,-64.7023 158.884,-62.6816 163.59,-60.9046"/>
<polygon fill="midnightblue" stroke="midnightblue" points="165.035,-64.1104 173.385,-57.5888 162.791,-57.4799 165.035,-64.1104"/>
</g>
<!-- Node9 -->
<g id="node9" class="node"><title>Node9</title>
<g id="a_node9"><a xlink:href="classBayerImage.html#a77bccbc5c1e04e2d9618d7a3bd5ab42d" target="_top" xlink:title="BayerImage::GetImagePayload">
<polygon fill="none" stroke="black" points="158.5,-0.5 158.5,-19.5 311.5,-19.5 311.5,-0.5 158.5,-0.5"/>
<text text-anchor="middle" x="235" y="-7.5" font-family="Helvetica,sans-Serif" font-size="10.00">BayerImage::GetImagePayload</text>
</a>
</g>
</g>
<!-- Node1&#45;&gt;Node9 -->
<g id="edge8" class="edge"><title>Node1&#45;&gt;Node9</title>
<path fill="none" stroke="midnightblue" d="M64.6493,-138.948C77.2324,-112.308 107.159,-57.0304 150,-29 153.124,-26.956 156.438,-25.13 159.874,-23.4989"/>
<polygon fill="midnightblue" stroke="midnightblue" points="161.32,-26.6884 169.213,-19.6206 158.635,-20.2238 161.32,-26.6884"/>
</g>
</g>
</svg>
