<?xml version="1.0" encoding="UTF-8" standalone="no"?>
<!DOCTYPE svg PUBLIC "-//W3C//DTD SVG 1.1//EN"
 "http://www.w3.org/Graphics/SVG/1.1/DTD/svg11.dtd">
<!-- Generated by graphviz version 2.36.0 (20140111.2315)
 -->
<!-- Title: Element::GetPosition Pages: 1 -->
<svg width="342pt" height="66pt"
 viewBox="0.00 0.00 342.00 66.00" xmlns="http://www.w3.org/2000/svg" xmlns:xlink="http://www.w3.org/1999/xlink">
<g id="graph0" class="graph" transform="scale(1 1) rotate(0) translate(4 62)">
<title>Element::GetPosition</title>
<!-- Node1 -->
<g id="node1" class="node"><title>Node1</title>
<polygon fill="#bfbfbf" stroke="black" points="0,-19.5 0,-38.5 110,-38.5 110,-19.5 0,-19.5"/>
<text text-anchor="middle" x="55" y="-26.5" font-family="Helvetica,sans-Serif" font-size="10.00">Element::GetPosition</text>
</g>
<!-- Node2 -->
<g id="node2" class="node"><title>Node2</title>
<g id="a_node2"><a xlink:href="classScenario.html#a0455002db1cd7744fd3686e617b82664" target="_top" xlink:title="Scenario::ComputeDistance">
<polygon fill="none" stroke="black" points="170,-38.5 170,-57.5 310,-57.5 310,-38.5 170,-38.5"/>
<text text-anchor="middle" x="240" y="-45.5" font-family="Helvetica,sans-Serif" font-size="10.00">Scenario::ComputeDistance</text>
</a>
</g>
</g>
<!-- Node1&#45;&gt;Node2 -->
<g id="edge1" class="edge"><title>Node1&#45;&gt;Node2</title>
<path fill="none" stroke="midnightblue" d="M120.68,-35.7154C136.603,-37.3686 153.714,-39.1451 169.839,-40.8193"/>
<polygon fill="midnightblue" stroke="midnightblue" points="120.719,-32.2007 110.411,-34.6492 119.996,-39.1633 120.719,-32.2007"/>
</g>
<!-- Node3 -->
<g id="node3" class="node"><title>Node3</title>
<g id="a_node3"><a xlink:href="classImageView.html#a6ae33c0595f67335b7b30a868ac73bee" target="_top" xlink:title="ImageView::ShowImageAndDetections">
<polygon fill="none" stroke="black" points="146,-0.5 146,-19.5 334,-19.5 334,-0.5 146,-0.5"/>
<text text-anchor="middle" x="240" y="-7.5" font-family="Helvetica,sans-Serif" font-size="10.00">ImageView::ShowImageAndDetections</text>
</a>
</g>
</g>
<!-- Node1&#45;&gt;Node3 -->
<g id="edge2" class="edge"><title>Node1&#45;&gt;Node3</title>
<path fill="none" stroke="midnightblue" d="M120.487,-22.3046C129.231,-21.3968 138.336,-20.4514 147.442,-19.506"/>
<polygon fill="midnightblue" stroke="midnightblue" points="119.996,-18.8367 110.411,-23.3508 120.719,-25.7993 119.996,-18.8367"/>
</g>
</g>
</svg>
