<?xml version="1.0" encoding="UTF-8" standalone="no"?>
<!DOCTYPE svg PUBLIC "-//W3C//DTD SVG 1.1//EN"
 "http://www.w3.org/Graphics/SVG/1.1/DTD/svg11.dtd">
<!-- Generated by graphviz version 2.36.0 (20140111.2315)
 -->
<!-- Title: Detector Pages: 1 -->
<svg width="383pt" height="84pt"
 viewBox="0.00 0.00 383.00 84.00" xmlns="http://www.w3.org/2000/svg" xmlns:xlink="http://www.w3.org/1999/xlink">
<g id="graph0" class="graph" transform="scale(1 1) rotate(0) translate(4 80)">
<title>Detector</title>
<!-- Node1 -->
<g id="node1" class="node"><title>Node1</title>
<polygon fill="#bfbfbf" stroke="black" points="164,-56.5 164,-75.5 218,-75.5 218,-56.5 164,-56.5"/>
<text text-anchor="middle" x="191" y="-63.5" font-family="Helvetica,sans-Serif" font-size="10.00">Detector</text>
</g>
<!-- Node2 -->
<g id="node2" class="node"><title>Node2</title>
<g id="a_node2"><a xlink:href="classCascadeHaarDetector.html" target="_top" xlink:title="CascadeHaarDetector">
<polygon fill="none" stroke="black" points="0,-0.5 0,-19.5 114,-19.5 114,-0.5 0,-0.5"/>
<text text-anchor="middle" x="57" y="-7.5" font-family="Helvetica,sans-Serif" font-size="10.00">CascadeHaarDetector</text>
</a>
</g>
</g>
<!-- Node1&#45;&gt;Node2 -->
<g id="edge1" class="edge"><title>Node1&#45;&gt;Node2</title>
<path fill="none" stroke="midnightblue" d="M160.323,-52.6377C135.177,-42.504 100.246,-28.4274 78.1334,-19.5164"/>
<polygon fill="midnightblue" stroke="midnightblue" points="159.184,-55.952 169.767,-56.4435 161.8,-49.4594 159.184,-55.952"/>
</g>
<!-- Node3 -->
<g id="node3" class="node"><title>Node3</title>
<g id="a_node3"><a xlink:href="classDaimlerPeopleDetector.html" target="_top" xlink:title="DaimlerPeopleDetector">
<polygon fill="none" stroke="black" points="132,-0.5 132,-19.5 250,-19.5 250,-0.5 132,-0.5"/>
<text text-anchor="middle" x="191" y="-7.5" font-family="Helvetica,sans-Serif" font-size="10.00">DaimlerPeopleDetector</text>
</a>
</g>
</g>
<!-- Node1&#45;&gt;Node3 -->
<g id="edge2" class="edge"><title>Node1&#45;&gt;Node3</title>
<path fill="none" stroke="midnightblue" d="M191,-45.8045C191,-36.9102 191,-26.7798 191,-19.7511"/>
<polygon fill="midnightblue" stroke="midnightblue" points="187.5,-46.083 191,-56.083 194.5,-46.083 187.5,-46.083"/>
</g>
<!-- Node4 -->
<g id="node4" class="node"><title>Node4</title>
<g id="a_node4"><a xlink:href="classHOGPeopleDetector.html" target="_top" xlink:title="HOGPeopleDetector">
<polygon fill="none" stroke="black" points="268.5,-0.5 268.5,-19.5 375.5,-19.5 375.5,-0.5 268.5,-0.5"/>
<text text-anchor="middle" x="322" y="-7.5" font-family="Helvetica,sans-Serif" font-size="10.00">HOGPeopleDetector</text>
</a>
</g>
</g>
<!-- Node1&#45;&gt;Node4 -->
<g id="edge3" class="edge"><title>Node1&#45;&gt;Node4</title>
<path fill="none" stroke="midnightblue" d="M221.317,-52.503C245.876,-42.3795 279.818,-28.388 301.34,-19.5164"/>
<polygon fill="midnightblue" stroke="midnightblue" points="219.669,-49.3966 211.757,-56.4435 222.337,-55.8683 219.669,-49.3966"/>
</g>
</g>
</svg>
