<?xml version="1.0" encoding="UTF-8" standalone="no"?>
<!DOCTYPE svg PUBLIC "-//W3C//DTD SVG 1.1//EN"
 "http://www.w3.org/Graphics/SVG/1.1/DTD/svg11.dtd">
<!-- Generated by graphviz version 2.36.0 (20140111.2315)
 -->
<!-- Title: Controller::AnalyseVideo Pages: 1 -->
<svg width="498pt" height="333pt"
 viewBox="0.00 0.00 498.00 333.00" xmlns="http://www.w3.org/2000/svg" xmlns:xlink="http://www.w3.org/1999/xlink">
<g id="graph0" class="graph" transform="scale(1 1) rotate(0) translate(4 329)">
<title>Controller::AnalyseVideo</title>
<!-- Node1 -->
<g id="node1" class="node"><title>Node1</title>
<polygon fill="#bfbfbf" stroke="black" points="0.5,-180.5 0.5,-199.5 125.5,-199.5 125.5,-180.5 0.5,-180.5"/>
<text text-anchor="middle" x="63" y="-187.5" font-family="Helvetica,sans-Serif" font-size="10.00">Controller::AnalyseVideo</text>
</g>
<!-- Node2 -->
<g id="node2" class="node"><title>Node2</title>
<g id="a_node2"><a xlink:href="classFrameSelectorFactory.html#a8886c3d5d1575372892ab11af0e7d30d" target="_top" xlink:title="FrameSelectorFactory\l::GetFrameSelector">
<polygon fill="none" stroke="black" points="187.5,-295 187.5,-325 300.5,-325 300.5,-295 187.5,-295"/>
<text text-anchor="start" x="195.5" y="-313" font-family="Helvetica,sans-Serif" font-size="10.00">FrameSelectorFactory</text>
<text text-anchor="middle" x="244" y="-302" font-family="Helvetica,sans-Serif" font-size="10.00">::GetFrameSelector</text>
</a>
</g>
</g>
<!-- Node1&#45;&gt;Node2 -->
<g id="edge1" class="edge"><title>Node1&#45;&gt;Node2</title>
<path fill="none" stroke="midnightblue" d="M71.2686,-199.601C86.191,-218.66 122.24,-261.457 162,-285 167.03,-287.978 172.449,-290.634 178.015,-292.996"/>
<polygon fill="midnightblue" stroke="midnightblue" points="176.891,-296.315 187.479,-296.698 179.441,-289.796 176.891,-296.315"/>
</g>
<!-- Node3 -->
<g id="node3" class="node"><title>Node3</title>
<g id="a_node3"><a xlink:href="classFrameSelector.html#ab3a070c88275a75cb6aaf1001f8b2a64" target="_top" xlink:title="FrameSelector::GetImageCount">
<polygon fill="none" stroke="black" points="166.5,-256.5 166.5,-275.5 321.5,-275.5 321.5,-256.5 166.5,-256.5"/>
<text text-anchor="middle" x="244" y="-263.5" font-family="Helvetica,sans-Serif" font-size="10.00">FrameSelector::GetImageCount</text>
</a>
</g>
</g>
<!-- Node1&#45;&gt;Node3 -->
<g id="edge2" class="edge"><title>Node1&#45;&gt;Node3</title>
<path fill="none" stroke="midnightblue" d="M77.6123,-199.684C95.9514,-212.307 129.995,-234.269 162,-247 168.312,-249.511 175.039,-251.741 181.815,-253.708"/>
<polygon fill="midnightblue" stroke="midnightblue" points="181.167,-257.158 191.735,-256.403 183.003,-250.403 181.167,-257.158"/>
</g>
<!-- Node4 -->
<g id="node4" class="node"><title>Node4</title>
<g id="a_node4"><a xlink:href="classFrameSelector.html#ac174e86068a781b9c3f020bf288cd7b6" target="_top" xlink:title="FrameSelector::ReadImage">
<polygon fill="none" stroke="black" points="175.5,-218.5 175.5,-237.5 312.5,-237.5 312.5,-218.5 175.5,-218.5"/>
<text text-anchor="middle" x="244" y="-225.5" font-family="Helvetica,sans-Serif" font-size="10.00">FrameSelector::ReadImage</text>
</a>
</g>
</g>
<!-- Node1&#45;&gt;Node4 -->
<g id="edge3" class="edge"><title>Node1&#45;&gt;Node4</title>
<path fill="none" stroke="midnightblue" d="M109.169,-199.589C133.216,-204.694 162.974,-211.011 188.319,-216.392"/>
<polygon fill="midnightblue" stroke="midnightblue" points="187.647,-219.827 198.156,-218.48 189.1,-212.98 187.647,-219.827"/>
</g>
<!-- Node5 -->
<g id="node5" class="node"><title>Node5</title>
<g id="a_node5"><a xlink:href="classDetection.html#a941a728fc31bb699c0ffdfb37363c786" target="_top" xlink:title="Detection::ProcessFrame">
<polygon fill="none" stroke="black" points="180,-180.5 180,-199.5 308,-199.5 308,-180.5 180,-180.5"/>
<text text-anchor="middle" x="244" y="-187.5" font-family="Helvetica,sans-Serif" font-size="10.00">Detection::ProcessFrame</text>
</a>
</g>
</g>
<!-- Node1&#45;&gt;Node5 -->
<g id="edge4" class="edge"><title>Node1&#45;&gt;Node5</title>
<path fill="none" stroke="midnightblue" d="M125.602,-190C139.817,-190 155.075,-190 169.732,-190"/>
<polygon fill="midnightblue" stroke="midnightblue" points="169.763,-193.5 179.763,-190 169.763,-186.5 169.763,-193.5"/>
</g>
<!-- Node10 -->
<g id="node10" class="node"><title>Node10</title>
<g id="a_node10"><a xlink:href="classAnalyser.html#ac90049a2162cf2a88cd92de7c5760d96" target="_top" xlink:title="Analyser::Analyse">
<polygon fill="none" stroke="black" points="196,-142.5 196,-161.5 292,-161.5 292,-142.5 196,-142.5"/>
<text text-anchor="middle" x="244" y="-149.5" font-family="Helvetica,sans-Serif" font-size="10.00">Analyser::Analyse</text>
</a>
</g>
</g>
<!-- Node1&#45;&gt;Node10 -->
<g id="edge9" class="edge"><title>Node1&#45;&gt;Node10</title>
<path fill="none" stroke="midnightblue" d="M109.169,-180.411C133.216,-175.306 162.974,-168.989 188.319,-163.608"/>
<polygon fill="midnightblue" stroke="midnightblue" points="189.1,-167.02 198.156,-161.52 187.647,-160.173 189.1,-167.02"/>
</g>
<!-- Node12 -->
<g id="node12" class="node"><title>Node12</title>
<g id="a_node12"><a xlink:href="classScenario.html#afa02a8b5e60b509b4f6283a814a4f72a" target="_top" xlink:title="Scenario::GetScenarioInformation">
<polygon fill="none" stroke="black" points="162,-104.5 162,-123.5 326,-123.5 326,-104.5 162,-104.5"/>
<text text-anchor="middle" x="244" y="-111.5" font-family="Helvetica,sans-Serif" font-size="10.00">Scenario::GetScenarioInformation</text>
</a>
</g>
</g>
<!-- Node1&#45;&gt;Node12 -->
<g id="edge11" class="edge"><title>Node1&#45;&gt;Node12</title>
<path fill="none" stroke="midnightblue" d="M77.6123,-180.316C95.9514,-167.693 129.995,-145.731 162,-133 168.312,-130.489 175.039,-128.259 181.815,-126.292"/>
<polygon fill="midnightblue" stroke="midnightblue" points="183.003,-129.597 191.735,-123.597 181.167,-122.842 183.003,-129.597"/>
</g>
<!-- Node13 -->
<g id="node13" class="node"><title>Node13</title>
<g id="a_node13"><a xlink:href="classProtoAgent.html#a878e6d846284f0962e17eaabe83c444c" target="_top" xlink:title="ProtoAgent::startClient">
<polygon fill="none" stroke="black" points="186,-52.5 186,-71.5 302,-71.5 302,-52.5 186,-52.5"/>
<text text-anchor="middle" x="244" y="-59.5" font-family="Helvetica,sans-Serif" font-size="10.00">ProtoAgent::startClient</text>
</a>
</g>
</g>
<!-- Node1&#45;&gt;Node13 -->
<g id="edge12" class="edge"><title>Node1&#45;&gt;Node13</title>
<path fill="none" stroke="midnightblue" d="M71.6868,-180.404C87.0754,-161.729 123.507,-120.13 162,-95 174.278,-86.9845 188.818,-80.3207 202.167,-75.1293"/>
<polygon fill="midnightblue" stroke="midnightblue" points="203.474,-78.3774 211.627,-71.6111 201.034,-71.8164 203.474,-78.3774"/>
</g>
<!-- Node6 -->
<g id="node6" class="node"><title>Node6</title>
<g id="a_node6"><a xlink:href="classImage.html#aeb608aeba65746cadab9233a5f555a1d" target="_top" xlink:title="Image::GetRGBImage">
<polygon fill="none" stroke="black" points="369,-278.5 369,-297.5 483,-297.5 483,-278.5 369,-278.5"/>
<text text-anchor="middle" x="426" y="-285.5" font-family="Helvetica,sans-Serif" font-size="10.00">Image::GetRGBImage</text>
</a>
</g>
</g>
<!-- Node5&#45;&gt;Node6 -->
<g id="edge5" class="edge"><title>Node5&#45;&gt;Node6</title>
<path fill="none" stroke="midnightblue" d="M308.259,-199.474C314.579,-201.961 320.633,-205.083 326,-209 351.121,-227.331 337.464,-249.893 362,-269 364.324,-270.81 366.818,-272.447 369.426,-273.93"/>
<polygon fill="midnightblue" stroke="midnightblue" points="368.117,-277.185 378.643,-278.394 371.168,-270.885 368.117,-277.185"/>
</g>
<!-- Node7 -->
<g id="node7" class="node"><title>Node7</title>
<g id="a_node7"><a xlink:href="classImage.html#a7ea6fcf26832356767d7d9766f11075a" target="_top" xlink:title="Image::GetImageWidth">
<polygon fill="none" stroke="black" points="367,-240.5 367,-259.5 485,-259.5 485,-240.5 367,-240.5"/>
<text text-anchor="middle" x="426" y="-247.5" font-family="Helvetica,sans-Serif" font-size="10.00">Image::GetImageWidth</text>
</a>
</g>
</g>
<!-- Node5&#45;&gt;Node7 -->
<g id="edge6" class="edge"><title>Node5&#45;&gt;Node7</title>
<path fill="none" stroke="midnightblue" d="M296.76,-199.545C306.646,-202.091 316.78,-205.216 326,-209 343.347,-216.12 344.884,-223.342 362,-231 367.084,-233.275 372.516,-235.372 377.979,-237.277"/>
<polygon fill="midnightblue" stroke="midnightblue" points="377.186,-240.7 387.779,-240.495 379.37,-234.05 377.186,-240.7"/>
</g>
<!-- Node8 -->
<g id="node8" class="node"><title>Node8</title>
<g id="a_node8"><a xlink:href="classImage.html#ab5e37380d072a8068b9c199d5c23e58f" target="_top" xlink:title="Image::GetImageHeight">
<polygon fill="none" stroke="black" points="365.5,-202.5 365.5,-221.5 486.5,-221.5 486.5,-202.5 365.5,-202.5"/>
<text text-anchor="middle" x="426" y="-209.5" font-family="Helvetica,sans-Serif" font-size="10.00">Image::GetImageHeight</text>
</a>
</g>
</g>
<!-- Node5&#45;&gt;Node8 -->
<g id="edge7" class="edge"><title>Node5&#45;&gt;Node8</title>
<path fill="none" stroke="midnightblue" d="M308.208,-197.725C323.415,-199.584 339.744,-201.58 355.231,-203.473"/>
<polygon fill="midnightblue" stroke="midnightblue" points="354.915,-206.96 365.266,-204.699 355.765,-200.012 354.915,-206.96"/>
</g>
<!-- Node9 -->
<g id="node9" class="node"><title>Node9</title>
<g id="a_node9"><a xlink:href="classFrameDetectionData.html#af25990eaa77d370ce5055cce0fe04418" target="_top" xlink:title="FrameDetectionData\l::AddElementsOfType">
<polygon fill="none" stroke="black" points="369.5,-153 369.5,-183 482.5,-183 482.5,-153 369.5,-153"/>
<text text-anchor="start" x="377.5" y="-171" font-family="Helvetica,sans-Serif" font-size="10.00">FrameDetectionData</text>
<text text-anchor="middle" x="426" y="-160" font-family="Helvetica,sans-Serif" font-size="10.00">::AddElementsOfType</text>
</a>
</g>
</g>
<!-- Node5&#45;&gt;Node9 -->
<g id="edge8" class="edge"><title>Node5&#45;&gt;Node9</title>
<path fill="none" stroke="midnightblue" d="M308.208,-182.275C324.734,-180.255 342.586,-178.073 359.242,-176.037"/>
<polygon fill="midnightblue" stroke="midnightblue" points="359.933,-179.479 369.435,-174.791 359.084,-172.53 359.933,-179.479"/>
</g>
<!-- Node11 -->
<g id="node11" class="node"><title>Node11</title>
<g id="a_node11"><a xlink:href="classScenario.html#ae9069e102b3a61fce3bf3cd5ce8c2e4b" target="_top" xlink:title="Scenario::Detect">
<polygon fill="none" stroke="black" points="381,-114.5 381,-133.5 471,-133.5 471,-114.5 381,-114.5"/>
<text text-anchor="middle" x="426" y="-121.5" font-family="Helvetica,sans-Serif" font-size="10.00">Scenario::Detect</text>
</a>
</g>
</g>
<!-- Node10&#45;&gt;Node11 -->
<g id="edge10" class="edge"><title>Node10&#45;&gt;Node11</title>
<path fill="none" stroke="midnightblue" d="M292.293,-144.643C316.37,-140.898 345.756,-136.327 370.75,-132.439"/>
<polygon fill="midnightblue" stroke="midnightblue" points="371.462,-135.87 380.805,-130.875 370.386,-128.954 371.462,-135.87"/>
</g>
<!-- Node14 -->
<g id="node14" class="node"><title>Node14</title>
<g id="a_node14"><a xlink:href="classProtoAgent.html#aeb3c6ccc08697c246065f44dd322f853" target="_top" xlink:title="ProtoAgent::sendWarning">
<polygon fill="none" stroke="black" points="362,-76.5 362,-95.5 490,-95.5 490,-76.5 362,-76.5"/>
<text text-anchor="middle" x="426" y="-83.5" font-family="Helvetica,sans-Serif" font-size="10.00">ProtoAgent::sendWarning</text>
</a>
</g>
</g>
<!-- Node13&#45;&gt;Node14 -->
<g id="edge13" class="edge"><title>Node13&#45;&gt;Node14</title>
<path fill="none" stroke="midnightblue" d="M302.448,-69.6597C318.125,-71.7501 335.326,-74.0435 351.754,-76.2339"/>
<polygon fill="midnightblue" stroke="midnightblue" points="351.488,-79.7293 361.863,-77.5817 352.413,-72.7907 351.488,-79.7293"/>
</g>
<!-- Node15 -->
<g id="node15" class="node"><title>Node15</title>
<g id="a_node15"><a xlink:href="classProtoAgent.html#a886b439af0438baa12205492233bd7e7" target="_top" xlink:title="ProtoAgent::protobuf_io">
<polygon fill="none" stroke="black" points="366.5,-38.5 366.5,-57.5 485.5,-57.5 485.5,-38.5 366.5,-38.5"/>
<text text-anchor="middle" x="426" y="-45.5" font-family="Helvetica,sans-Serif" font-size="10.00">ProtoAgent::protobuf_io</text>
</a>
</g>
</g>
<!-- Node13&#45;&gt;Node15 -->
<g id="edge14" class="edge"><title>Node13&#45;&gt;Node15</title>
<path fill="none" stroke="midnightblue" d="M302.448,-57.5318C319.477,-56.2073 338.304,-54.743 355.986,-53.3678"/>
<polygon fill="midnightblue" stroke="midnightblue" points="356.544,-56.835 366.242,-52.57 356.001,-49.8561 356.544,-56.835"/>
</g>
<!-- Node16 -->
<g id="node16" class="node"><title>Node16</title>
<g id="a_node16"><a xlink:href="classProtoAgent.html#ab18e30a358aa537ac403a596018924be" target="_top" xlink:title="ProtoAgent::print_on_exit">
<polygon fill="none" stroke="black" points="362.5,-0.5 362.5,-19.5 489.5,-19.5 489.5,-0.5 362.5,-0.5"/>
<text text-anchor="middle" x="426" y="-7.5" font-family="Helvetica,sans-Serif" font-size="10.00">ProtoAgent::print_on_exit</text>
</a>
</g>
</g>
<!-- Node13&#45;&gt;Node16 -->
<g id="edge15" class="edge"><title>Node13&#45;&gt;Node16</title>
<path fill="none" stroke="midnightblue" d="M278.015,-52.4624C307.229,-44.0226 350.053,-31.6514 381.949,-22.4369"/>
<polygon fill="midnightblue" stroke="midnightblue" points="383.255,-25.703 391.89,-19.565 381.312,-18.978 383.255,-25.703"/>
</g>
</g>
</svg>
