<?xml version="1.0" encoding="UTF-8" standalone="no"?>
<!DOCTYPE svg PUBLIC "-//W3C//DTD SVG 1.1//EN"
 "http://www.w3.org/Graphics/SVG/1.1/DTD/svg11.dtd">
<!-- Generated by graphviz version 2.36.0 (20140111.2315)
 -->
<!-- Title: Element::GetMaxX Pages: 1 -->
<svg width="438pt" height="71pt"
 viewBox="0.00 0.00 438.00 71.00" xmlns="http://www.w3.org/2000/svg" xmlns:xlink="http://www.w3.org/1999/xlink">
<g id="graph0" class="graph" transform="scale(1 1) rotate(0) translate(4 67)">
<title>Element::GetMaxX</title>
<!-- Node1 -->
<g id="node1" class="node"><title>Node1</title>
<polygon fill="#bfbfbf" stroke="black" points="0,-19.5 0,-38.5 100,-38.5 100,-19.5 0,-19.5"/>
<text text-anchor="middle" x="50" y="-26.5" font-family="Helvetica,sans-Serif" font-size="10.00">Element::GetMaxX</text>
</g>
<!-- Node2 -->
<g id="node2" class="node"><title>Node2</title>
<g id="a_node2"><a xlink:href="classScenario.html#ab27cc8e0785d4cf0d9a7c83a8b3a4eac" target="_top" xlink:title="Scenario::DoOverlap">
<polygon fill="none" stroke="black" points="136.5,-38.5 136.5,-57.5 243.5,-57.5 243.5,-38.5 136.5,-38.5"/>
<text text-anchor="middle" x="190" y="-45.5" font-family="Helvetica,sans-Serif" font-size="10.00">Scenario::DoOverlap</text>
</a>
</g>
</g>
<!-- Node1&#45;&gt;Node2 -->
<g id="edge1" class="edge"><title>Node1&#45;&gt;Node2</title>
<path fill="none" stroke="midnightblue" d="M110.145,-37.1431C118.864,-38.3436 127.797,-39.5736 136.373,-40.7542"/>
<polygon fill="midnightblue" stroke="midnightblue" points="110.426,-33.6489 100.042,-35.7522 109.471,-40.5835 110.426,-33.6489"/>
</g>
<!-- Node4 -->
<g id="node4" class="node"><title>Node4</title>
<g id="a_node4"><a xlink:href="classScenario.html#aca3e2bf6176bb8bfdf1a94a6198505b7" target="_top" xlink:title="Scenario::DoContain">
<polygon fill="none" stroke="black" points="136.5,-0.5 136.5,-19.5 243.5,-19.5 243.5,-0.5 136.5,-0.5"/>
<text text-anchor="middle" x="190" y="-7.5" font-family="Helvetica,sans-Serif" font-size="10.00">Scenario::DoContain</text>
</a>
</g>
</g>
<!-- Node1&#45;&gt;Node4 -->
<g id="edge3" class="edge"><title>Node1&#45;&gt;Node4</title>
<path fill="none" stroke="midnightblue" d="M110.145,-20.8569C118.864,-19.6564 127.797,-18.4264 136.373,-17.2458"/>
<polygon fill="midnightblue" stroke="midnightblue" points="109.471,-17.4165 100.042,-22.2478 110.426,-24.3511 109.471,-17.4165"/>
</g>
<!-- Node3 -->
<g id="node3" class="node"><title>Node3</title>
<g id="a_node3"><a xlink:href="classHumansInFrontOfBusScenario.html#a3eb02befb731be6f9ef9c7e54fae6560" target="_top" xlink:title="HumansInFrontOfBusScenario\l::Detect">
<polygon fill="none" stroke="black" points="280,-33 280,-63 430,-63 430,-33 280,-33"/>
<text text-anchor="start" x="288" y="-51" font-family="Helvetica,sans-Serif" font-size="10.00">HumansInFrontOfBusScenario</text>
<text text-anchor="middle" x="355" y="-40" font-family="Helvetica,sans-Serif" font-size="10.00">::Detect</text>
</a>
</g>
</g>
<!-- Node2&#45;&gt;Node3 -->
<g id="edge2" class="edge"><title>Node2&#45;&gt;Node3</title>
<path fill="none" stroke="midnightblue" d="M254.026,-48C262.445,-48 271.14,-48 279.728,-48"/>
<polygon fill="midnightblue" stroke="midnightblue" points="253.921,-44.5001 243.921,-48 253.921,-51.5001 253.921,-44.5001"/>
</g>
</g>
</svg>
