<?xml version="1.0" encoding="UTF-8" standalone="no"?>
<!DOCTYPE svg PUBLIC "-//W3C//DTD SVG 1.1//EN"
 "http://www.w3.org/Graphics/SVG/1.1/DTD/svg11.dtd">
<!-- Generated by graphviz version 2.36.0 (20140111.2315)
 -->
<!-- Title: Controller::PlayAsVideo Pages: 1 -->
<svg width="322pt" height="153pt"
 viewBox="0.00 0.00 322.00 153.00" xmlns="http://www.w3.org/2000/svg" xmlns:xlink="http://www.w3.org/1999/xlink">
<g id="graph0" class="graph" transform="scale(1 1) rotate(0) translate(4 149)">
<title>Controller::PlayAsVideo</title>
<!-- Node1 -->
<g id="node1" class="node"><title>Node1</title>
<polygon fill="#bfbfbf" stroke="black" points="0.5,-57.5 0.5,-76.5 121.5,-76.5 121.5,-57.5 0.5,-57.5"/>
<text text-anchor="middle" x="61" y="-64.5" font-family="Helvetica,sans-Serif" font-size="10.00">Controller::PlayAsVideo</text>
</g>
<!-- Node2 -->
<g id="node2" class="node"><title>Node2</title>
<g id="a_node2"><a xlink:href="classFrameSelectorFactory.html#a8886c3d5d1575372892ab11af0e7d30d" target="_top" xlink:title="FrameSelectorFactory\l::GetFrameSelector">
<polygon fill="none" stroke="black" points="179.5,-115 179.5,-145 292.5,-145 292.5,-115 179.5,-115"/>
<text text-anchor="start" x="187.5" y="-133" font-family="Helvetica,sans-Serif" font-size="10.00">FrameSelectorFactory</text>
<text text-anchor="middle" x="236" y="-122" font-family="Helvetica,sans-Serif" font-size="10.00">::GetFrameSelector</text>
</a>
</g>
</g>
<!-- Node1&#45;&gt;Node2 -->
<g id="edge1" class="edge"><title>Node1&#45;&gt;Node2</title>
<path fill="none" stroke="midnightblue" d="M85.1228,-76.6267C104.471,-84.5675 132.87,-95.9568 158,-105 164.309,-107.27 170.94,-109.562 177.554,-111.79"/>
<polygon fill="midnightblue" stroke="midnightblue" points="176.6,-115.161 187.194,-114.996 178.81,-108.518 176.6,-115.161"/>
</g>
<!-- Node3 -->
<g id="node3" class="node"><title>Node3</title>
<g id="a_node3"><a xlink:href="classFrameSelector.html#ab3a070c88275a75cb6aaf1001f8b2a64" target="_top" xlink:title="FrameSelector::GetImageCount">
<polygon fill="none" stroke="black" points="158.5,-76.5 158.5,-95.5 313.5,-95.5 313.5,-76.5 158.5,-76.5"/>
<text text-anchor="middle" x="236" y="-83.5" font-family="Helvetica,sans-Serif" font-size="10.00">FrameSelector::GetImageCount</text>
</a>
</g>
</g>
<!-- Node1&#45;&gt;Node3 -->
<g id="edge2" class="edge"><title>Node1&#45;&gt;Node3</title>
<path fill="none" stroke="midnightblue" d="M121.537,-73.5387C130.129,-74.4824 139.117,-75.4695 148.109,-76.4571"/>
<polygon fill="midnightblue" stroke="midnightblue" points="147.922,-79.9575 158.244,-77.5702 148.686,-72.9993 147.922,-79.9575"/>
</g>
<!-- Node4 -->
<g id="node4" class="node"><title>Node4</title>
<g id="a_node4"><a xlink:href="classFrameSelector.html#ac174e86068a781b9c3f020bf288cd7b6" target="_top" xlink:title="FrameSelector::ReadImage">
<polygon fill="none" stroke="black" points="167.5,-38.5 167.5,-57.5 304.5,-57.5 304.5,-38.5 167.5,-38.5"/>
<text text-anchor="middle" x="236" y="-45.5" font-family="Helvetica,sans-Serif" font-size="10.00">FrameSelector::ReadImage</text>
</a>
</g>
</g>
<!-- Node1&#45;&gt;Node4 -->
<g id="edge3" class="edge"><title>Node1&#45;&gt;Node4</title>
<path fill="none" stroke="midnightblue" d="M121.537,-60.4613C133.067,-59.195 145.307,-57.8506 157.319,-56.5315"/>
<polygon fill="midnightblue" stroke="midnightblue" points="157.775,-60.0024 167.334,-55.4316 157.011,-53.0443 157.775,-60.0024"/>
</g>
<!-- Node5 -->
<g id="node5" class="node"><title>Node5</title>
<g id="a_node5"><a xlink:href="classImageView.html#a7b25e6cb2474f07696aa24a1d5eb6fe8" target="_top" xlink:title="ImageView::ShowImage">
<polygon fill="none" stroke="black" points="174.5,-0.5 174.5,-19.5 297.5,-19.5 297.5,-0.5 174.5,-0.5"/>
<text text-anchor="middle" x="236" y="-7.5" font-family="Helvetica,sans-Serif" font-size="10.00">ImageView::ShowImage</text>
</a>
</g>
</g>
<!-- Node1&#45;&gt;Node5 -->
<g id="edge4" class="edge"><title>Node1&#45;&gt;Node5</title>
<path fill="none" stroke="midnightblue" d="M83.8089,-57.3888C103.07,-49.1373 132.048,-37.2964 158,-29 165.739,-26.526 174.001,-24.183 182.135,-22.0421"/>
<polygon fill="midnightblue" stroke="midnightblue" points="183.125,-25.4017 191.947,-19.5357 181.392,-18.6194 183.125,-25.4017"/>
</g>
</g>
</svg>
