<?xml version="1.0" encoding="UTF-8" standalone="no"?>
<!DOCTYPE svg PUBLIC "-//W3C//DTD SVG 1.1//EN"
 "http://www.w3.org/Graphics/SVG/1.1/DTD/svg11.dtd">
<!-- Generated by graphviz version 2.36.0 (20140111.2315)
 -->
<!-- Title: BayerImage::GetImagePayload Pages: 1 -->
<svg width="338pt" height="77pt"
 viewBox="0.00 0.00 338.00 77.00" xmlns="http://www.w3.org/2000/svg" xmlns:xlink="http://www.w3.org/1999/xlink">
<g id="graph0" class="graph" transform="scale(1 1) rotate(0) translate(4 73)">
<title>BayerImage::GetImagePayload</title>
<!-- Node1 -->
<g id="node1" class="node"><title>Node1</title>
<polygon fill="#bfbfbf" stroke="black" points="0.5,-27.5 0.5,-46.5 153.5,-46.5 153.5,-27.5 0.5,-27.5"/>
<text text-anchor="middle" x="77" y="-34.5" font-family="Helvetica,sans-Serif" font-size="10.00">BayerImage::GetImagePayload</text>
</g>
<!-- Node2 -->
<g id="node2" class="node"><title>Node2</title>
<g id="a_node2"><a xlink:href="classBayerImage.html#a228035e294dd92d6284bfa3ca3e30ff4" target="_top" xlink:title="BayerImage::GetRGBImage">
<polygon fill="none" stroke="black" points="190,-49.5 190,-68.5 330,-68.5 330,-49.5 190,-49.5"/>
<text text-anchor="middle" x="260" y="-56.5" font-family="Helvetica,sans-Serif" font-size="10.00">BayerImage::GetRGBImage</text>
</a>
</g>
</g>
<!-- Node1&#45;&gt;Node2 -->
<g id="edge1" class="edge"><title>Node1&#45;&gt;Node2</title>
<path fill="none" stroke="midnightblue" d="M163.912,-47.4424C172.64,-48.5033 181.426,-49.5711 189.942,-50.6062"/>
<polygon fill="midnightblue" stroke="midnightblue" points="164.061,-43.9348 153.712,-46.2025 163.216,-50.8836 164.061,-43.9348"/>
</g>
<!-- Node3 -->
<g id="node3" class="node"><title>Node3</title>
<g id="a_node3"><a xlink:href="classHDF5FrameSelector.html#abd65b3f0cc71cb23a1bff91cc647d770" target="_top" xlink:title="HDF5FrameSelector::\lReadImage">
<polygon fill="none" stroke="black" points="203.5,-0 203.5,-30 316.5,-30 316.5,-0 203.5,-0"/>
<text text-anchor="start" x="211.5" y="-18" font-family="Helvetica,sans-Serif" font-size="10.00">HDF5FrameSelector::</text>
<text text-anchor="middle" x="260" y="-7" font-family="Helvetica,sans-Serif" font-size="10.00">ReadImage</text>
</a>
</g>
</g>
<!-- Node1&#45;&gt;Node3 -->
<g id="edge2" class="edge"><title>Node1&#45;&gt;Node3</title>
<path fill="none" stroke="midnightblue" d="M163.93,-26.5554C177.354,-24.9239 190.911,-23.276 203.418,-21.7559"/>
<polygon fill="midnightblue" stroke="midnightblue" points="163.216,-23.1164 153.712,-27.7975 164.061,-30.0652 163.216,-23.1164"/>
</g>
</g>
</svg>
