<?xml version="1.0" encoding="UTF-8" standalone="no"?>
<!DOCTYPE svg PUBLIC "-//W3C//DTD SVG 1.1//EN"
 "http://www.w3.org/Graphics/SVG/1.1/DTD/svg11.dtd">
<!-- Generated by graphviz version 2.36.0 (20140111.2315)
 -->
<!-- Title: Scenario::DoOverlap Pages: 1 -->
<svg width="252pt" height="142pt"
 viewBox="0.00 0.00 252.00 142.00" xmlns="http://www.w3.org/2000/svg" xmlns:xlink="http://www.w3.org/1999/xlink">
<g id="graph0" class="graph" transform="scale(1 1) rotate(0) translate(4 138)">
<title>Scenario::DoOverlap</title>
<!-- Node1 -->
<g id="node1" class="node"><title>Node1</title>
<polygon fill="#bfbfbf" stroke="black" points="0.5,-57.5 0.5,-76.5 107.5,-76.5 107.5,-57.5 0.5,-57.5"/>
<text text-anchor="middle" x="54" y="-64.5" font-family="Helvetica,sans-Serif" font-size="10.00">Scenario::DoOverlap</text>
</g>
<!-- Node2 -->
<g id="node2" class="node"><title>Node2</title>
<g id="a_node2"><a xlink:href="classElement.html#ae9ae03dbc2a53e9dce866f8f90f52fbb" target="_top" xlink:title="Element::GetMinX">
<polygon fill="none" stroke="black" points="145.5,-114.5 145.5,-133.5 242.5,-133.5 242.5,-114.5 145.5,-114.5"/>
<text text-anchor="middle" x="194" y="-121.5" font-family="Helvetica,sans-Serif" font-size="10.00">Element::GetMinX</text>
</a>
</g>
</g>
<!-- Node1&#45;&gt;Node2 -->
<g id="edge1" class="edge"><title>Node1&#45;&gt;Node2</title>
<path fill="none" stroke="midnightblue" d="M76.8592,-76.5759C94.823,-84.3866 120.971,-95.622 144,-105 148.737,-106.929 153.75,-108.925 158.69,-110.865"/>
<polygon fill="midnightblue" stroke="midnightblue" points="157.42,-114.126 168.008,-114.496 159.961,-107.604 157.42,-114.126"/>
</g>
<!-- Node3 -->
<g id="node3" class="node"><title>Node3</title>
<g id="a_node3"><a xlink:href="classElement.html#aea907c7c3bbcbe8752ced3032b04cb70" target="_top" xlink:title="Element::GetMaxX">
<polygon fill="none" stroke="black" points="144,-76.5 144,-95.5 244,-95.5 244,-76.5 144,-76.5"/>
<text text-anchor="middle" x="194" y="-83.5" font-family="Helvetica,sans-Serif" font-size="10.00">Element::GetMaxX</text>
</a>
</g>
</g>
<!-- Node1&#45;&gt;Node3 -->
<g id="edge2" class="edge"><title>Node1&#45;&gt;Node3</title>
<path fill="none" stroke="midnightblue" d="M107.566,-74.2373C116.106,-75.4132 125.003,-76.6381 133.691,-77.8343"/>
<polygon fill="midnightblue" stroke="midnightblue" points="133.376,-81.3239 143.76,-79.2206 134.331,-74.3893 133.376,-81.3239"/>
</g>
<!-- Node4 -->
<g id="node4" class="node"><title>Node4</title>
<g id="a_node4"><a xlink:href="classElement.html#a3d06fffe381dbaba2bfe4b5b6d99611a" target="_top" xlink:title="Element::GetMinY">
<polygon fill="none" stroke="black" points="145.5,-38.5 145.5,-57.5 242.5,-57.5 242.5,-38.5 145.5,-38.5"/>
<text text-anchor="middle" x="194" y="-45.5" font-family="Helvetica,sans-Serif" font-size="10.00">Element::GetMinY</text>
</a>
</g>
</g>
<!-- Node1&#45;&gt;Node4 -->
<g id="edge3" class="edge"><title>Node1&#45;&gt;Node4</title>
<path fill="none" stroke="midnightblue" d="M107.566,-59.7627C116.531,-58.5283 125.889,-57.2399 134.986,-55.9874"/>
<polygon fill="midnightblue" stroke="midnightblue" points="135.682,-59.4247 145.111,-54.5934 134.727,-52.4901 135.682,-59.4247"/>
</g>
<!-- Node5 -->
<g id="node5" class="node"><title>Node5</title>
<g id="a_node5"><a xlink:href="classElement.html#adf8fb018755ead3042185f00106af4f8" target="_top" xlink:title="Element::GetMaxY">
<polygon fill="none" stroke="black" points="144,-0.5 144,-19.5 244,-19.5 244,-0.5 144,-0.5"/>
<text text-anchor="middle" x="194" y="-7.5" font-family="Helvetica,sans-Serif" font-size="10.00">Element::GetMaxY</text>
</a>
</g>
</g>
<!-- Node1&#45;&gt;Node5 -->
<g id="edge4" class="edge"><title>Node1&#45;&gt;Node5</title>
<path fill="none" stroke="midnightblue" d="M76.8592,-57.4241C94.823,-49.6134 120.971,-38.378 144,-29 148.737,-27.0708 153.75,-25.0753 158.69,-23.1352"/>
<polygon fill="midnightblue" stroke="midnightblue" points="159.961,-26.3961 168.008,-19.5043 157.42,-19.8737 159.961,-26.3961"/>
</g>
</g>
</svg>
