<?xml version="1.0" encoding="UTF-8" standalone="no"?>
<!DOCTYPE svg PUBLIC "-//W3C//DTD SVG 1.1//EN"
 "http://www.w3.org/Graphics/SVG/1.1/DTD/svg11.dtd">
<!-- Generated by graphviz version 2.36.0 (20140111.2315)
 -->
<!-- Title: FrameSelectorFactory::GetFrameSelector Pages: 1 -->
<svg width="290pt" height="115pt"
 viewBox="0.00 0.00 290.00 115.00" xmlns="http://www.w3.org/2000/svg" xmlns:xlink="http://www.w3.org/1999/xlink">
<g id="graph0" class="graph" transform="scale(1 1) rotate(0) translate(4 111)">
<title>FrameSelectorFactory::GetFrameSelector</title>
<!-- Node1 -->
<g id="node1" class="node"><title>Node1</title>
<polygon fill="#bfbfbf" stroke="black" points="0.5,-44 0.5,-74 113.5,-74 113.5,-44 0.5,-44"/>
<text text-anchor="start" x="8.5" y="-62" font-family="Helvetica,sans-Serif" font-size="10.00">FrameSelectorFactory</text>
<text text-anchor="middle" x="57" y="-51" font-family="Helvetica,sans-Serif" font-size="10.00">::GetFrameSelector</text>
</g>
<!-- Node2 -->
<g id="node2" class="node"><title>Node2</title>
<g id="a_node2"><a xlink:href="classController.html#a19cb830e2532b42b588b3dcc26ced8fa" target="_top" xlink:title="Controller::PlayAsVideo">
<polygon fill="none" stroke="black" points="155.5,-87.5 155.5,-106.5 276.5,-106.5 276.5,-87.5 155.5,-87.5"/>
<text text-anchor="middle" x="216" y="-94.5" font-family="Helvetica,sans-Serif" font-size="10.00">Controller::PlayAsVideo</text>
</a>
</g>
</g>
<!-- Node1&#45;&gt;Node2 -->
<g id="edge1" class="edge"><title>Node1&#45;&gt;Node2</title>
<path fill="none" stroke="midnightblue" d="M123.52,-74.8584C141.238,-79.1467 159.862,-83.6546 175.648,-87.4754"/>
<polygon fill="midnightblue" stroke="midnightblue" points="124.337,-71.4551 113.794,-72.5044 122.69,-78.2587 124.337,-71.4551"/>
</g>
<!-- Node3 -->
<g id="node3" class="node"><title>Node3</title>
<g id="a_node3"><a xlink:href="classController.html#ae6a344da6f15085a06114ee0514a8a24" target="_top" xlink:title="Controller::AnalyseVideo">
<polygon fill="none" stroke="black" points="153.5,-49.5 153.5,-68.5 278.5,-68.5 278.5,-49.5 153.5,-49.5"/>
<text text-anchor="middle" x="216" y="-56.5" font-family="Helvetica,sans-Serif" font-size="10.00">Controller::AnalyseVideo</text>
</a>
</g>
</g>
<!-- Node1&#45;&gt;Node3 -->
<g id="edge2" class="edge"><title>Node1&#45;&gt;Node3</title>
<path fill="none" stroke="midnightblue" d="M123.828,-59C133.574,-59 143.588,-59 153.247,-59"/>
<polygon fill="midnightblue" stroke="midnightblue" points="123.794,-55.5001 113.794,-59 123.794,-62.5001 123.794,-55.5001"/>
</g>
<!-- Node4 -->
<g id="node4" class="node"><title>Node4</title>
<g id="a_node4"><a xlink:href="classController.html#afd6375744f4f31dd254d1e5f1316ff4b" target="_top" xlink:title="Controller::SaveAllImages\lAsJPEG">
<polygon fill="none" stroke="black" points="150.5,-0 150.5,-30 281.5,-30 281.5,-0 150.5,-0"/>
<text text-anchor="start" x="158.5" y="-18" font-family="Helvetica,sans-Serif" font-size="10.00">Controller::SaveAllImages</text>
<text text-anchor="middle" x="216" y="-7" font-family="Helvetica,sans-Serif" font-size="10.00">AsJPEG</text>
</a>
</g>
</g>
<!-- Node1&#45;&gt;Node4 -->
<g id="edge3" class="edge"><title>Node1&#45;&gt;Node4</title>
<path fill="none" stroke="midnightblue" d="M121.556,-41.1882C134.769,-37.485 148.57,-33.6173 161.384,-30.0262"/>
<polygon fill="midnightblue" stroke="midnightblue" points="120.276,-37.912 111.591,-43.9808 122.165,-44.6523 120.276,-37.912"/>
</g>
</g>
</svg>
