<?xml version="1.0" encoding="UTF-8" standalone="no"?>
<!DOCTYPE svg PUBLIC "-//W3C//DTD SVG 1.1//EN"
 "http://www.w3.org/Graphics/SVG/1.1/DTD/svg11.dtd">
<!-- Generated by graphviz version 2.36.0 (20140111.2315)
 -->
<!-- Title: BayerImage::GetImageWidth Pages: 1 -->
<svg width="328pt" height="77pt"
 viewBox="0.00 0.00 328.00 77.00" xmlns="http://www.w3.org/2000/svg" xmlns:xlink="http://www.w3.org/1999/xlink">
<g id="graph0" class="graph" transform="scale(1 1) rotate(0) translate(4 73)">
<title>BayerImage::GetImageWidth</title>
<!-- Node1 -->
<g id="node1" class="node"><title>Node1</title>
<polygon fill="#bfbfbf" stroke="black" points="0.5,-27.5 0.5,-46.5 143.5,-46.5 143.5,-27.5 0.5,-27.5"/>
<text text-anchor="middle" x="72" y="-34.5" font-family="Helvetica,sans-Serif" font-size="10.00">BayerImage::GetImageWidth</text>
</g>
<!-- Node2 -->
<g id="node2" class="node"><title>Node2</title>
<g id="a_node2"><a xlink:href="classBayerImage.html#a228035e294dd92d6284bfa3ca3e30ff4" target="_top" xlink:title="BayerImage::GetRGBImage">
<polygon fill="none" stroke="black" points="180,-49.5 180,-68.5 320,-68.5 320,-49.5 180,-49.5"/>
<text text-anchor="middle" x="250" y="-56.5" font-family="Helvetica,sans-Serif" font-size="10.00">BayerImage::GetRGBImage</text>
</a>
</g>
</g>
<!-- Node1&#45;&gt;Node2 -->
<g id="edge1" class="edge"><title>Node1&#45;&gt;Node2</title>
<path fill="none" stroke="midnightblue" d="M153.744,-47.0929C162.463,-48.1829 171.279,-49.2849 179.845,-50.3556"/>
<polygon fill="midnightblue" stroke="midnightblue" points="153.929,-43.5889 143.572,-45.8215 153.06,-50.5349 153.929,-43.5889"/>
</g>
<!-- Node3 -->
<g id="node3" class="node"><title>Node3</title>
<g id="a_node3"><a xlink:href="classHDF5FrameSelector.html#abd65b3f0cc71cb23a1bff91cc647d770" target="_top" xlink:title="HDF5FrameSelector::\lReadImage">
<polygon fill="none" stroke="black" points="193.5,-0 193.5,-30 306.5,-30 306.5,-0 193.5,-0"/>
<text text-anchor="start" x="201.5" y="-18" font-family="Helvetica,sans-Serif" font-size="10.00">HDF5FrameSelector::</text>
<text text-anchor="middle" x="250" y="-7" font-family="Helvetica,sans-Serif" font-size="10.00">ReadImage</text>
</a>
</g>
</g>
<!-- Node1&#45;&gt;Node3 -->
<g id="edge2" class="edge"><title>Node1&#45;&gt;Node3</title>
<path fill="none" stroke="midnightblue" d="M153.739,-26.9076C167.119,-25.2351 180.725,-23.5344 193.307,-21.9616"/>
<polygon fill="midnightblue" stroke="midnightblue" points="153.06,-23.4651 143.572,-28.1785 153.929,-30.4111 153.06,-23.4651"/>
</g>
</g>
</svg>
