<?xml version="1.0" encoding="UTF-8" standalone="no"?>
<!DOCTYPE svg PUBLIC "-//W3C//DTD SVG 1.1//EN"
 "http://www.w3.org/Graphics/SVG/1.1/DTD/svg11.dtd">
<!-- Generated by graphviz version 2.36.0 (20140111.2315)
 -->
<!-- Title: FrameSelector::GetImageCount Pages: 1 -->
<svg width="332pt" height="115pt"
 viewBox="0.00 0.00 332.00 115.00" xmlns="http://www.w3.org/2000/svg" xmlns:xlink="http://www.w3.org/1999/xlink">
<g id="graph0" class="graph" transform="scale(1 1) rotate(0) translate(4 111)">
<title>FrameSelector::GetImageCount</title>
<!-- Node1 -->
<g id="node1" class="node"><title>Node1</title>
<polygon fill="#bfbfbf" stroke="black" points="0.5,-49.5 0.5,-68.5 155.5,-68.5 155.5,-49.5 0.5,-49.5"/>
<text text-anchor="middle" x="78" y="-56.5" font-family="Helvetica,sans-Serif" font-size="10.00">FrameSelector::GetImageCount</text>
</g>
<!-- Node2 -->
<g id="node2" class="node"><title>Node2</title>
<g id="a_node2"><a xlink:href="classController.html#a19cb830e2532b42b588b3dcc26ced8fa" target="_top" xlink:title="Controller::PlayAsVideo">
<polygon fill="none" stroke="black" points="197.5,-87.5 197.5,-106.5 318.5,-106.5 318.5,-87.5 197.5,-87.5"/>
<text text-anchor="middle" x="258" y="-94.5" font-family="Helvetica,sans-Serif" font-size="10.00">Controller::PlayAsVideo</text>
</a>
</g>
</g>
<!-- Node1&#45;&gt;Node2 -->
<g id="edge1" class="edge"><title>Node1&#45;&gt;Node2</title>
<path fill="none" stroke="midnightblue" d="M133.716,-70.681C158.959,-76.0699 188.545,-82.3861 212.406,-87.4799"/>
<polygon fill="midnightblue" stroke="midnightblue" points="134.427,-67.254 123.917,-68.589 132.966,-74.0997 134.427,-67.254"/>
</g>
<!-- Node3 -->
<g id="node3" class="node"><title>Node3</title>
<g id="a_node3"><a xlink:href="classController.html#ae6a344da6f15085a06114ee0514a8a24" target="_top" xlink:title="Controller::AnalyseVideo">
<polygon fill="none" stroke="black" points="195.5,-49.5 195.5,-68.5 320.5,-68.5 320.5,-49.5 195.5,-49.5"/>
<text text-anchor="middle" x="258" y="-56.5" font-family="Helvetica,sans-Serif" font-size="10.00">Controller::AnalyseVideo</text>
</a>
</g>
</g>
<!-- Node1&#45;&gt;Node3 -->
<g id="edge2" class="edge"><title>Node1&#45;&gt;Node3</title>
<path fill="none" stroke="midnightblue" d="M165.537,-59C175.587,-59 185.678,-59 195.298,-59"/>
<polygon fill="midnightblue" stroke="midnightblue" points="165.521,-55.5001 155.521,-59 165.521,-62.5001 165.521,-55.5001"/>
</g>
<!-- Node4 -->
<g id="node4" class="node"><title>Node4</title>
<g id="a_node4"><a xlink:href="classController.html#afd6375744f4f31dd254d1e5f1316ff4b" target="_top" xlink:title="Controller::SaveAllImages\lAsJPEG">
<polygon fill="none" stroke="black" points="192.5,-0 192.5,-30 323.5,-30 323.5,-0 192.5,-0"/>
<text text-anchor="start" x="200.5" y="-18" font-family="Helvetica,sans-Serif" font-size="10.00">Controller::SaveAllImages</text>
<text text-anchor="middle" x="258" y="-7" font-family="Helvetica,sans-Serif" font-size="10.00">AsJPEG</text>
</a>
</g>
</g>
<!-- Node1&#45;&gt;Node4 -->
<g id="edge3" class="edge"><title>Node1&#45;&gt;Node4</title>
<path fill="none" stroke="midnightblue" d="M127.364,-47.045C148.538,-41.8108 173.62,-35.6107 196.054,-30.0654"/>
<polygon fill="midnightblue" stroke="midnightblue" points="126.491,-43.6552 117.623,-49.4527 128.171,-50.4506 126.491,-43.6552"/>
</g>
</g>
</svg>
