<?xml version="1.0" encoding="UTF-8" standalone="no"?>
<!DOCTYPE svg PUBLIC "-//W3C//DTD SVG 1.1//EN"
 "http://www.w3.org/Graphics/SVG/1.1/DTD/svg11.dtd">
<!-- Generated by graphviz version 2.36.0 (20140111.2315)
 -->
<!-- Title: ImageView::ShowImageAndDetections Pages: 1 -->
<svg width="346pt" height="104pt"
 viewBox="0.00 0.00 346.00 104.00" xmlns="http://www.w3.org/2000/svg" xmlns:xlink="http://www.w3.org/1999/xlink">
<g id="graph0" class="graph" transform="scale(1 1) rotate(0) translate(4 100)">
<title>ImageView::ShowImageAndDetections</title>
<!-- Node1 -->
<g id="node1" class="node"><title>Node1</title>
<polygon fill="#bfbfbf" stroke="black" points="0,-38.5 0,-57.5 188,-57.5 188,-38.5 0,-38.5"/>
<text text-anchor="middle" x="94" y="-45.5" font-family="Helvetica,sans-Serif" font-size="10.00">ImageView::ShowImageAndDetections</text>
</g>
<!-- Node2 -->
<g id="node2" class="node"><title>Node2</title>
<g id="a_node2"><a xlink:href="classImage.html#aeb608aeba65746cadab9233a5f555a1d" target="_top" xlink:title="Image::GetRGBImage">
<polygon fill="none" stroke="black" points="224,-76.5 224,-95.5 338,-95.5 338,-76.5 224,-76.5"/>
<text text-anchor="middle" x="281" y="-83.5" font-family="Helvetica,sans-Serif" font-size="10.00">Image::GetRGBImage</text>
</a>
</g>
</g>
<!-- Node1&#45;&gt;Node2 -->
<g id="edge1" class="edge"><title>Node1&#45;&gt;Node2</title>
<path fill="none" stroke="midnightblue" d="M141.683,-57.589C166.646,-62.7165 197.564,-69.0672 223.834,-74.4632"/>
<polygon fill="midnightblue" stroke="midnightblue" points="223.153,-77.8962 233.652,-76.4799 224.561,-71.0394 223.153,-77.8962"/>
</g>
<!-- Node3 -->
<g id="node3" class="node"><title>Node3</title>
<g id="a_node3"><a xlink:href="classElement.html#a7f88fb876554262930c712a85eda5439" target="_top" xlink:title="Element::GetPosition">
<polygon fill="none" stroke="black" points="226,-38.5 226,-57.5 336,-57.5 336,-38.5 226,-38.5"/>
<text text-anchor="middle" x="281" y="-45.5" font-family="Helvetica,sans-Serif" font-size="10.00">Element::GetPosition</text>
</a>
</g>
</g>
<!-- Node1&#45;&gt;Node3 -->
<g id="edge2" class="edge"><title>Node1&#45;&gt;Node3</title>
<path fill="none" stroke="midnightblue" d="M188.042,-48C197.355,-48 206.66,-48 215.581,-48"/>
<polygon fill="midnightblue" stroke="midnightblue" points="215.853,-51.5001 225.853,-48 215.853,-44.5001 215.853,-51.5001"/>
</g>
<!-- Node4 -->
<g id="node4" class="node"><title>Node4</title>
<g id="a_node4"><a xlink:href="classElement.html#ad336322888d50e9fd23ea05cadb5be46" target="_top" xlink:title="Element::GetBoxSize">
<polygon fill="none" stroke="black" points="225.5,-0.5 225.5,-19.5 336.5,-19.5 336.5,-0.5 225.5,-0.5"/>
<text text-anchor="middle" x="281" y="-7.5" font-family="Helvetica,sans-Serif" font-size="10.00">Element::GetBoxSize</text>
</a>
</g>
</g>
<!-- Node1&#45;&gt;Node4 -->
<g id="edge3" class="edge"><title>Node1&#45;&gt;Node4</title>
<path fill="none" stroke="midnightblue" d="M141.683,-38.411C166.646,-33.2835 197.564,-26.9328 223.834,-21.5368"/>
<polygon fill="midnightblue" stroke="midnightblue" points="224.561,-24.9606 233.652,-19.5201 223.153,-18.1038 224.561,-24.9606"/>
</g>
</g>
</svg>
