<?xml version="1.0" encoding="UTF-8" standalone="no"?>
<!DOCTYPE svg PUBLIC "-//W3C//DTD SVG 1.1//EN"
 "http://www.w3.org/Graphics/SVG/1.1/DTD/svg11.dtd">
<!-- Generated by graphviz version 2.36.0 (20140111.2315)
 -->
<!-- Title: HDFReader::GetNumberOfProtobufFiles Pages: 1 -->
<svg width="514pt" height="87pt"
 viewBox="0.00 0.00 514.00 87.00" xmlns="http://www.w3.org/2000/svg" xmlns:xlink="http://www.w3.org/1999/xlink">
<g id="graph0" class="graph" transform="scale(1 1) rotate(0) translate(4 83)">
<title>HDFReader::GetNumberOfProtobufFiles</title>
<!-- Node1 -->
<g id="node1" class="node"><title>Node1</title>
<polygon fill="#bfbfbf" stroke="black" points="0.5,-24 0.5,-54 173.5,-54 173.5,-24 0.5,-24"/>
<text text-anchor="start" x="8.5" y="-42" font-family="Helvetica,sans-Serif" font-size="10.00">HDFReader::GetNumberOfProtobuf</text>
<text text-anchor="middle" x="87" y="-31" font-family="Helvetica,sans-Serif" font-size="10.00">Files</text>
</g>
<!-- Node2 -->
<g id="node2" class="node"><title>Node2</title>
<g id="a_node2"><a xlink:href="classHDF5FrameSelector.html#a440ad3d303d5419836dd4dd618d89349" target="_top" xlink:title="HDF5FrameSelector::\lGetImageCount">
<polygon fill="none" stroke="black" points="226.5,-49 226.5,-79 339.5,-79 339.5,-49 226.5,-49"/>
<text text-anchor="start" x="234.5" y="-67" font-family="Helvetica,sans-Serif" font-size="10.00">HDF5FrameSelector::</text>
<text text-anchor="middle" x="283" y="-56" font-family="Helvetica,sans-Serif" font-size="10.00">GetImageCount</text>
</a>
</g>
</g>
<!-- Node1&#45;&gt;Node2 -->
<g id="edge1" class="edge"><title>Node1&#45;&gt;Node2</title>
<path fill="none" stroke="midnightblue" d="M183.743,-51.3381C198.347,-53.2199 212.988,-55.1066 226.342,-56.8276"/>
<polygon fill="midnightblue" stroke="midnightblue" points="184.021,-47.845 173.656,-50.0381 183.127,-54.7876 184.021,-47.845"/>
</g>
<!-- Node3 -->
<g id="node3" class="node"><title>Node3</title>
<g id="a_node3"><a xlink:href="classHDFReader.html#a5b9e493c8ec8cf001105dd262336e10b" target="_top" xlink:title="HDFReader::ReadAllProtobuf\lFiles">
<polygon fill="none" stroke="black" points="210,-0 210,-30 356,-30 356,-0 210,-0"/>
<text text-anchor="start" x="218" y="-18" font-family="Helvetica,sans-Serif" font-size="10.00">HDFReader::ReadAllProtobuf</text>
<text text-anchor="middle" x="283" y="-7" font-family="Helvetica,sans-Serif" font-size="10.00">Files</text>
</a>
</g>
</g>
<!-- Node1&#45;&gt;Node3 -->
<g id="edge2" class="edge"><title>Node1&#45;&gt;Node3</title>
<path fill="none" stroke="midnightblue" d="M183.602,-27.1729C192.431,-26.0807 201.276,-24.9865 209.843,-23.9266"/>
<polygon fill="midnightblue" stroke="midnightblue" points="183.151,-23.702 173.656,-28.4034 184.01,-30.6491 183.151,-23.702"/>
</g>
<!-- Node4 -->
<g id="node4" class="node"><title>Node4</title>
<g id="a_node4"><a xlink:href="classHDF5FrameSelector.html#ab96c4aad85f9d271b66b7fbd8cdd1cdb" target="_top" xlink:title="HDF5FrameSelector::\lReadAllImages">
<polygon fill="none" stroke="black" points="392.5,-0 392.5,-30 505.5,-30 505.5,-0 392.5,-0"/>
<text text-anchor="start" x="400.5" y="-18" font-family="Helvetica,sans-Serif" font-size="10.00">HDF5FrameSelector::</text>
<text text-anchor="middle" x="449" y="-7" font-family="Helvetica,sans-Serif" font-size="10.00">ReadAllImages</text>
</a>
</g>
</g>
<!-- Node3&#45;&gt;Node4 -->
<g id="edge3" class="edge"><title>Node3&#45;&gt;Node4</title>
<path fill="none" stroke="midnightblue" d="M366.589,-15C375.276,-15 383.954,-15 392.234,-15"/>
<polygon fill="midnightblue" stroke="midnightblue" points="366.41,-11.5001 356.41,-15 366.41,-18.5001 366.41,-11.5001"/>
</g>
</g>
</svg>
