<?xml version="1.0" encoding="UTF-8" standalone="no"?>
<!DOCTYPE svg PUBLIC "-//W3C//DTD SVG 1.1//EN"
 "http://www.w3.org/Graphics/SVG/1.1/DTD/svg11.dtd">
<!-- Generated by graphviz version 2.36.0 (20140111.2315)
 -->
<!-- Title: Graphical Class Hierarchy Pages: 1 -->
<svg width="216pt" height="104pt"
 viewBox="0.00 0.00 216.00 104.00" xmlns="http://www.w3.org/2000/svg" xmlns:xlink="http://www.w3.org/1999/xlink">
<g id="graph0" class="graph" transform="scale(1 1) rotate(0) translate(4 100)">
<title>Graphical Class Hierarchy</title>
<!-- Node1 -->
<g id="node1" class="node"><title>Node1</title>
<g id="a_node1"><a xlink:href="classDetector.html" target="_top" xlink:title="Detector">
<polygon fill="none" stroke="black" points="0,-38.5 0,-57.5 54,-57.5 54,-38.5 0,-38.5"/>
<text text-anchor="middle" x="27" y="-45.5" font-family="Helvetica,sans-Serif" font-size="10.00">Detector</text>
</a>
</g>
</g>
<!-- Node2 -->
<g id="node2" class="node"><title>Node2</title>
<g id="a_node2"><a xlink:href="classCascadeHaarDetector.html" target="_top" xlink:title="CascadeHaarDetector">
<polygon fill="none" stroke="black" points="92,-76.5 92,-95.5 206,-95.5 206,-76.5 92,-76.5"/>
<text text-anchor="middle" x="149" y="-83.5" font-family="Helvetica,sans-Serif" font-size="10.00">CascadeHaarDetector</text>
</a>
</g>
</g>
<!-- Node1&#45;&gt;Node2 -->
<g id="edge1" class="edge"><title>Node1&#45;&gt;Node2</title>
<path fill="none" stroke="midnightblue" d="M63.7448,-59.3192C80.9509,-64.7678 101.357,-71.2297 117.777,-76.4294"/>
<polygon fill="midnightblue" stroke="midnightblue" points="64.6283,-55.9277 54.0382,-56.2454 62.515,-62.6011 64.6283,-55.9277"/>
</g>
<!-- Node3 -->
<g id="node3" class="node"><title>Node3</title>
<g id="a_node3"><a xlink:href="classDaimlerPeopleDetector.html" target="_top" xlink:title="DaimlerPeopleDetector">
<polygon fill="none" stroke="black" points="90,-38.5 90,-57.5 208,-57.5 208,-38.5 90,-38.5"/>
<text text-anchor="middle" x="149" y="-45.5" font-family="Helvetica,sans-Serif" font-size="10.00">DaimlerPeopleDetector</text>
</a>
</g>
</g>
<!-- Node1&#45;&gt;Node3 -->
<g id="edge2" class="edge"><title>Node1&#45;&gt;Node3</title>
<path fill="none" stroke="midnightblue" d="M64.2672,-48C72.4002,-48 81.2268,-48 89.9964,-48"/>
<polygon fill="midnightblue" stroke="midnightblue" points="64.0382,-44.5001 54.0382,-48 64.0382,-51.5001 64.0382,-44.5001"/>
</g>
<!-- Node4 -->
<g id="node4" class="node"><title>Node4</title>
<g id="a_node4"><a xlink:href="classHOGPeopleDetector.html" target="_top" xlink:title="HOGPeopleDetector">
<polygon fill="none" stroke="black" points="95.5,-0.5 95.5,-19.5 202.5,-19.5 202.5,-0.5 95.5,-0.5"/>
<text text-anchor="middle" x="149" y="-7.5" font-family="Helvetica,sans-Serif" font-size="10.00">HOGPeopleDetector</text>
</a>
</g>
</g>
<!-- Node1&#45;&gt;Node4 -->
<g id="edge3" class="edge"><title>Node1&#45;&gt;Node4</title>
<path fill="none" stroke="midnightblue" d="M63.7448,-36.6808C80.9509,-31.2322 101.357,-24.7703 117.777,-19.5706"/>
<polygon fill="midnightblue" stroke="midnightblue" points="62.515,-33.3989 54.0382,-39.7546 64.6283,-40.0723 62.515,-33.3989"/>
</g>
</g>
</svg>
