<?xml version="1.0" encoding="UTF-8" standalone="no"?>
<!DOCTYPE svg PUBLIC "-//W3C//DTD SVG 1.1//EN"
 "http://www.w3.org/Graphics/SVG/1.1/DTD/svg11.dtd">
<!-- Generated by graphviz version 2.36.0 (20140111.2315)
 -->
<!-- Title: Graphical Class Hierarchy Pages: 1 -->
<svg width="232pt" height="66pt"
 viewBox="0.00 0.00 232.00 66.00" xmlns="http://www.w3.org/2000/svg" xmlns:xlink="http://www.w3.org/1999/xlink">
<g id="graph0" class="graph" transform="scale(1 1) rotate(0) translate(4 62)">
<title>Graphical Class Hierarchy</title>
<!-- Node1 -->
<g id="node1" class="node"><title>Node1</title>
<g id="a_node1"><a xlink:href="classFrameSelector.html" target="_top" xlink:title="FrameSelector">
<polygon fill="none" stroke="black" points="0,-19.5 0,-38.5 80,-38.5 80,-19.5 0,-19.5"/>
<text text-anchor="middle" x="40" y="-26.5" font-family="Helvetica,sans-Serif" font-size="10.00">FrameSelector</text>
</a>
</g>
</g>
<!-- Node2 -->
<g id="node2" class="node"><title>Node2</title>
<g id="a_node2"><a xlink:href="classHDF5FrameSelector.html" target="_top" xlink:title="HDF5FrameSelector">
<polygon fill="none" stroke="black" points="116.5,-38.5 116.5,-57.5 223.5,-57.5 223.5,-38.5 116.5,-38.5"/>
<text text-anchor="middle" x="170" y="-45.5" font-family="Helvetica,sans-Serif" font-size="10.00">HDF5FrameSelector</text>
</a>
</g>
</g>
<!-- Node1&#45;&gt;Node2 -->
<g id="edge1" class="edge"><title>Node1&#45;&gt;Node2</title>
<path fill="none" stroke="midnightblue" d="M90.036,-36.2788C98.6862,-37.5628 107.723,-38.9041 116.464,-40.2017"/>
<polygon fill="midnightblue" stroke="midnightblue" points="90.5053,-32.8102 80.0997,-34.8039 89.4774,-39.7343 90.5053,-32.8102"/>
</g>
<!-- Node3 -->
<g id="node3" class="node"><title>Node3</title>
<g id="a_node3"><a xlink:href="classMP4FrameSelector.html" target="_top" xlink:title="MP4FrameSelector">
<polygon fill="none" stroke="black" points="119.5,-0.5 119.5,-19.5 220.5,-19.5 220.5,-0.5 119.5,-0.5"/>
<text text-anchor="middle" x="170" y="-7.5" font-family="Helvetica,sans-Serif" font-size="10.00">MP4FrameSelector</text>
</a>
</g>
</g>
<!-- Node1&#45;&gt;Node3 -->
<g id="edge2" class="edge"><title>Node1&#45;&gt;Node3</title>
<path fill="none" stroke="midnightblue" d="M90.2096,-21.6954C99.7334,-20.2818 109.719,-18.7995 119.26,-17.3833"/>
<polygon fill="midnightblue" stroke="midnightblue" points="89.4774,-18.2657 80.0997,-23.1961 90.5053,-25.1898 89.4774,-18.2657"/>
</g>
</g>
</svg>
