<?xml version="1.0" encoding="UTF-8" standalone="no"?>
<!DOCTYPE svg PUBLIC "-//W3C//DTD SVG 1.1//EN"
 "http://www.w3.org/Graphics/SVG/1.1/DTD/svg11.dtd">
<!-- Generated by graphviz version 2.36.0 (20140111.2315)
 -->
<!-- Title: Graphical Class Hierarchy Pages: 1 -->
<svg width="158pt" height="66pt"
 viewBox="0.00 0.00 158.00 66.00" xmlns="http://www.w3.org/2000/svg" xmlns:xlink="http://www.w3.org/1999/xlink">
<g id="graph0" class="graph" transform="scale(1 1) rotate(0) translate(4 62)">
<title>Graphical Class Hierarchy</title>
<!-- Node1 -->
<g id="node1" class="node"><title>Node1</title>
<g id="a_node1"><a xlink:href="classImage.html" target="_top" xlink:title="Image">
<polygon fill="none" stroke="black" points="0,-19.5 0,-38.5 44,-38.5 44,-19.5 0,-19.5"/>
<text text-anchor="middle" x="22" y="-26.5" font-family="Helvetica,sans-Serif" font-size="10.00">Image</text>
</a>
</g>
</g>
<!-- Node2 -->
<g id="node2" class="node"><title>Node2</title>
<g id="a_node2"><a xlink:href="classBayerImage.html" target="_top" xlink:title="BayerImage">
<polygon fill="none" stroke="black" points="80.5,-38.5 80.5,-57.5 149.5,-57.5 149.5,-38.5 80.5,-38.5"/>
<text text-anchor="middle" x="115" y="-45.5" font-family="Helvetica,sans-Serif" font-size="10.00">BayerImage</text>
</a>
</g>
</g>
<!-- Node1&#45;&gt;Node2 -->
<g id="edge1" class="edge"><title>Node1&#45;&gt;Node2</title>
<path fill="none" stroke="midnightblue" d="M53.9458,-35.4612C62.3909,-37.2245 71.5835,-39.1438 80.1796,-40.9386"/>
<polygon fill="midnightblue" stroke="midnightblue" points="54.6102,-32.0245 44.106,-33.4067 53.1795,-38.8768 54.6102,-32.0245"/>
</g>
<!-- Node3 -->
<g id="node3" class="node"><title>Node3</title>
<g id="a_node3"><a xlink:href="classMP4Image.html" target="_top" xlink:title="MP4Image">
<polygon fill="none" stroke="black" points="83,-0.5 83,-19.5 147,-19.5 147,-0.5 83,-0.5"/>
<text text-anchor="middle" x="115" y="-7.5" font-family="Helvetica,sans-Serif" font-size="10.00">MP4Image</text>
</a>
</g>
</g>
<!-- Node1&#45;&gt;Node3 -->
<g id="edge2" class="edge"><title>Node1&#45;&gt;Node3</title>
<path fill="none" stroke="midnightblue" d="M54.0578,-22.5154C63.2879,-20.5882 73.4026,-18.4764 82.6511,-16.5454"/>
<polygon fill="midnightblue" stroke="midnightblue" points="53.1795,-19.1232 44.106,-24.5933 54.6102,-25.9755 53.1795,-19.1232"/>
</g>
</g>
</svg>
