<?xml version="1.0" encoding="UTF-8" standalone="no"?>
<!DOCTYPE svg PUBLIC "-//W3C//DTD SVG 1.1//EN"
 "http://www.w3.org/Graphics/SVG/1.1/DTD/svg11.dtd">
<!-- Generated by graphviz version 2.36.0 (20140111.2315)
 -->
<!-- Title: Graphical Class Hierarchy Pages: 1 -->
<svg width="224pt" height="191pt"
 viewBox="0.00 0.00 224.00 191.00" xmlns="http://www.w3.org/2000/svg" xmlns:xlink="http://www.w3.org/1999/xlink">
<g id="graph0" class="graph" transform="scale(1 1) rotate(0) translate(4 187)">
<title>Graphical Class Hierarchy</title>
<!-- Node1 -->
<g id="node1" class="node"><title>Node1</title>
<polygon fill="none" stroke="#bfbfbf" points="0,-87.5 0,-106.5 56,-106.5 56,-87.5 0,-87.5"/>
<text text-anchor="middle" x="28" y="-94.5" font-family="Helvetica,sans-Serif" font-size="10.00">Message</text>
</g>
<!-- Node2 -->
<g id="node2" class="node"><title>Node2</title>
<g id="a_node2"><a xlink:href="classorg_1_1libcppa_1_1ack.html" target="_top" xlink:title="org::libcppa::ack">
<polygon fill="none" stroke="black" points="109.5,-163.5 109.5,-182.5 198.5,-182.5 198.5,-163.5 109.5,-163.5"/>
<text text-anchor="middle" x="154" y="-170.5" font-family="Helvetica,sans-Serif" font-size="10.00">org::libcppa::ack</text>
</a>
</g>
</g>
<!-- Node1&#45;&gt;Node2 -->
<g id="edge1" class="edge"><title>Node1&#45;&gt;Node2</title>
<path fill="none" stroke="midnightblue" d="M44.3474,-114.471C56.2361,-127.045 73.7161,-143.563 92,-154 98.6469,-157.794 106.142,-160.923 113.546,-163.47"/>
<polygon fill="midnightblue" stroke="midnightblue" points="46.7275,-111.888 37.39,-106.882 41.5675,-116.618 46.7275,-111.888"/>
</g>
<!-- Node3 -->
<g id="node3" class="node"><title>Node3</title>
<g id="a_node3"><a xlink:href="classorg_1_1libcppa_1_1warning.html" target="_top" xlink:title="org::libcppa::warning">
<polygon fill="none" stroke="black" points="100.5,-125.5 100.5,-144.5 207.5,-144.5 207.5,-125.5 100.5,-125.5"/>
<text text-anchor="middle" x="154" y="-132.5" font-family="Helvetica,sans-Serif" font-size="10.00">org::libcppa::warning</text>
</a>
</g>
</g>
<!-- Node1&#45;&gt;Node3 -->
<g id="edge2" class="edge"><title>Node1&#45;&gt;Node3</title>
<path fill="none" stroke="midnightblue" d="M66.2429,-108.413C84.0105,-113.858 105.024,-120.298 121.92,-125.475"/>
<polygon fill="midnightblue" stroke="midnightblue" points="66.799,-104.923 56.2123,-105.339 64.7479,-111.616 66.799,-104.923"/>
</g>
<!-- Node4 -->
<g id="node4" class="node"><title>Node4</title>
<g id="a_node4"><a xlink:href="classorg_1_1libcppa_1_1WarnOrAck.html" target="_top" xlink:title="org::libcppa::WarnOrAck">
<polygon fill="none" stroke="black" points="92,-87.5 92,-106.5 216,-106.5 216,-87.5 92,-87.5"/>
<text text-anchor="middle" x="154" y="-94.5" font-family="Helvetica,sans-Serif" font-size="10.00">org::libcppa::WarnOrAck</text>
</a>
</g>
</g>
<!-- Node1&#45;&gt;Node4 -->
<g id="edge3" class="edge"><title>Node1&#45;&gt;Node4</title>
<path fill="none" stroke="midnightblue" d="M66.3528,-97C74.4002,-97 83.1093,-97 91.7975,-97"/>
<polygon fill="midnightblue" stroke="midnightblue" points="66.2124,-93.5001 56.2123,-97 66.2123,-100.5 66.2124,-93.5001"/>
</g>
<!-- Node5 -->
<g id="node5" class="node"><title>Node5</title>
<g id="a_node5"><a xlink:href="classpb_1_1Header.html" target="_top" xlink:title="pb::Header">
<polygon fill="none" stroke="black" points="121.5,-49.5 121.5,-68.5 186.5,-68.5 186.5,-49.5 121.5,-49.5"/>
<text text-anchor="middle" x="154" y="-56.5" font-family="Helvetica,sans-Serif" font-size="10.00">pb::Header</text>
</a>
</g>
</g>
<!-- Node1&#45;&gt;Node5 -->
<g id="edge4" class="edge"><title>Node1&#45;&gt;Node5</title>
<path fill="none" stroke="midnightblue" d="M66.2429,-85.5869C84.0105,-80.1419 105.024,-73.7024 121.92,-68.5246"/>
<polygon fill="midnightblue" stroke="midnightblue" points="64.7479,-82.3843 56.2123,-88.6607 66.799,-89.077 64.7479,-82.3843"/>
</g>
<!-- Node6 -->
<g id="node6" class="node"><title>Node6</title>
<g id="a_node6"><a xlink:href="classpb_1_1SensorNearData_1_1MFC_1_1CameraImage.html" target="_top" xlink:title="pb::SensorNearData\l::MFC::CameraImage">
<polygon fill="none" stroke="black" points="98,-0 98,-30 210,-30 210,-0 98,-0"/>
<text text-anchor="start" x="106" y="-18" font-family="Helvetica,sans-Serif" font-size="10.00">pb::SensorNearData</text>
<text text-anchor="middle" x="154" y="-7" font-family="Helvetica,sans-Serif" font-size="10.00">::MFC::CameraImage</text>
</a>
</g>
</g>
<!-- Node1&#45;&gt;Node6 -->
<g id="edge5" class="edge"><title>Node1&#45;&gt;Node6</title>
<path fill="none" stroke="midnightblue" d="M44.6241,-79.9898C56.6531,-67.65 74.1873,-51.2223 92,-40 97.8102,-36.3395 104.248,-33.0216 110.699,-30.0867"/>
<polygon fill="midnightblue" stroke="midnightblue" points="41.9206,-77.7538 37.5668,-87.4127 46.9937,-82.577 41.9206,-77.7538"/>
</g>
</g>
</svg>
